<?xml version="1.0" standalone="no"?>
<!DOCTYPE svg PUBLIC "-//W3C//DTD SVG 1.1//EN" "http://www.w3.org/Graphics/SVG/1.1/DTD/svg11.dtd" >
<svg>
<metadata>
Created by FontForge 20090622 at Wed May  2 19:45:38 2018
 By deploy user
Copyright (c) 1990 Adobe Systems Incorporated.  All Rights Reserved.Granjon is a trademark of Linotype AG and/or its subsidiaries.
</metadata>
<defs>
<font id="Granjon" horiz-adv-x="444" >
  <font-face 
    font-family="Granjon"
    font-weight="500"
    font-stretch="normal"
    units-per-em="1000"
    panose-1="0 0 0 0 0 0 0 0 0 0"
    ascent="800"
    descent="-200"
    x-height="386"
    cap-height="634"
    bbox="-167 -272 1000 844"
    underline-thickness="50"
    underline-position="-75"
    unicode-range="U+0020-U+FB02"
  />
<missing-glyph horiz-adv-x="222" 
 />
    <glyph glyph-name=".notdef" horiz-adv-x="222" 
 />
    <glyph glyph-name=".null" horiz-adv-x="0" 
 />
    <glyph glyph-name="nonmarkingreturn" horiz-adv-x="333" 
 />
    <glyph glyph-name="space" unicode=" " horiz-adv-x="222" 
 />
    <glyph glyph-name="exclam" unicode="!" horiz-adv-x="333" 
d="M152 132l-9 162q-1 23 -11.5 148t-10.5 148q0 68 46 68t46 -61q0 -12 -10 -122l-34 -343h-17zM124 35q0 18 12.5 30.5t30.5 12.5t30.5 -12.5t12.5 -30.5t-12.5 -30.5t-30.5 -12.5t-30.5 12.5t-12.5 30.5z" />
    <glyph glyph-name="quotedbl" unicode="&#x22;" horiz-adv-x="333" 
d="M272 561l-17 -204q-4 -31 -17 -31q-12 0 -16 31l-17 204q-6 81 33 81q40 0 34 -81zM128 561l-17 -204q-4 -31 -16 -31q-13 0 -17 31l-17 204q-6 81 34 81q39 0 33 -81z" />
    <glyph glyph-name="numbersign" unicode="#" 
d="M420 247v-44h-99l-28 -203h-51l29 203h-122l-28 -203h-51l29 203h-99v44h106l19 139h-100v44h106l28 204h51l-29 -204h122l28 204h51l-29 -204h92v-44h-99l-19 -139h93zM297 386h-123l-19 -139h123z" />
    <glyph glyph-name="dollar" unicode="$" 
d="M142 728h36v-89q20 3 34 3q15 0 32 -3v89h36v-96q50 -13 83 -35.5t33 -41.5q0 -25 -26 -25q-15 0 -25 9t-26.5 28t-38.5 33v-253q126 -45 126 -174q0 -44 -13 -77t-36.5 -52.5t-39 -28.5t-37.5 -17v-92h-36v87q-11 -1 -35 -1q-19 0 -31 1v-87h-36v92q-63 14 -94.5 36
t-31.5 44q0 32 31 32q11 0 22.5 -6t20 -13.5l24.5 -22l28 -24.5v260q-110 48 -110 168q0 52 30.5 95t79.5 62v99zM142 386v217q-66 -39 -66 -118q0 -31 12 -53t23 -29.5t31 -16.5zM244 357v257q-13 4 -31 4q-19 0 -35 -4v-239zM178 296v-268q18 -6 38 -6q12 0 28 4v252z
M280 268v-231q29 14 47.5 46t18.5 79q0 40 -20.5 66.5t-45.5 39.5z" />
    <glyph glyph-name="percent" unicode="%" horiz-adv-x="778" 
d="M616 676h37l-494 -684h-44l414 572l-2 2q-56 -23 -109 -23q-23 0 -53 13q-13 -101 -69 -173.5t-123 -72.5q-51 0 -81.5 36t-30.5 87q0 88 69 157.5t146 69.5q74 0 87 -72q24 -19 59 -19q38 0 70.5 10t57 29.5t37 33t29.5 34.5zM633 318q-59 0 -115 -84.5t-56 -147.5
q0 -70 64 -70q42 0 81.5 40t61.5 94.5t22 100.5q0 31 -15.5 49t-42.5 18zM278 636q-37 0 -76.5 -42.5t-64 -97t-24.5 -92.5q0 -32 17.5 -51t46.5 -19q59 0 111.5 79t52.5 163q-21 18 -29 53q-14 7 -34 7zM625 342q90 0 90 -102q0 -30 -14.5 -71.5t-38.5 -81.5t-61.5 -67.5
t-78.5 -27.5q-51 0 -81.5 36t-30.5 87q0 88 69 157.5t146 69.5z" />
    <glyph glyph-name="ampersand" unicode="&#x26;" horiz-adv-x="574" 
d="M345 332h178v-20q-32 -6 -46.5 -12t-26.5 -21q-14 -18 -35 -71.5t-29 -70.5q2 -2 12 -15l18 -23t20 -22t24 -18.5t22 -6.5q17 0 29.5 18t16.5 18q10 0 10 -9q0 -5 -8 -24.5t-27 -41t-41 -21.5q-44 0 -112 88q-41 -46 -79 -67t-95 -21q-70 0 -108.5 40t-38.5 91
q0 49 26 91.5t85 89.5q-54 47 -54 84q0 42 35.5 84t83.5 42q31 0 49 -16.5t18 -46.5q0 -55 -64 -125q15 -17 76 -78.5t82 -85.5q41 79 40 115q-2 32 -61 35v20zM79 167q0 -53 44.5 -90t90.5 -37q34 0 65.5 19t50.5 44q-19 23 -79.5 89.5t-91.5 96.5q-80 -57 -80 -122z
M124 421q0 -38 65 -78q53 42 53 82q0 26 -14.5 42.5t-36.5 16.5q-29 0 -48 -20t-19 -43z" />
    <glyph glyph-name="quotesingle" unicode="'" horiz-adv-x="222" 
d="M144 561l-17 -204q-4 -31 -17 -31q-12 0 -16 31l-17 204q-6 81 33 81q40 0 34 -81z" />
    <glyph glyph-name="parenleft" unicode="(" horiz-adv-x="278" 
d="M252 676v-22q-52 -63 -84 -144t-42 -142t-10 -118q0 -112 39 -225.5t95 -180.5v-22q-18 13 -47.5 45.5t-67 86t-63.5 130.5t-26 156q0 245 206 436z" />
    <glyph glyph-name="parenright" unicode=")" horiz-adv-x="278" 
d="M26 -178v22q52 63 84 144t42 142t10 118q0 112 -39 225.5t-95 180.5v22q18 -13 47.5 -45.5t67 -86t63.5 -130.5t26 -156q0 -245 -206 -436z" />
    <glyph glyph-name="asterisk" unicode="*" 
d="M215 490h12l18 83q7 36 15.5 48.5t23.5 12.5q12 0 19.5 -6.5t7.5 -17.5q0 -16 -20 -49l-50 -75l8 -6l92 52q27 16 40 16q9 0 15.5 -7.5t6.5 -18.5q0 -13 -7.5 -20t-28.5 -12l-113 -29v-9l111 -25q40 -9 40 -36q0 -23 -29 -23q-20 0 -51 21l-77 51l-8 -7l52 -87
q18 -31 18 -47q0 -8 -7 -15.5t-18 -7.5q-28 0 -38 48l-23 106h-10l-25 -118q-7 -36 -31 -36q-11 0 -19 7.5t-8 16.5q0 17 22 57l46 78l-7 5l-72 -50q-30 -21 -60 -21q-8 0 -14 6t-6 15q0 26 49 38l99 24v9l-107 25q-43 10 -43 35q0 10 7.5 17.5t17.5 7.5q16 0 42 -15l88 -51
l8 6l-54 88q-17 26 -17 39q0 11 8 19t19 8q24 0 37 -56z" />
    <glyph glyph-name="plus" unicode="+" horiz-adv-x="600" 
d="M278 215v171h44v-171h171v-44h-171v-171h-44v171h-171v44h171z" />
    <glyph glyph-name="comma" unicode="," horiz-adv-x="222" 
d="M44 -168v16q94 52 94 112q0 18 -13.5 26t-29.5 9.5t-29.5 13t-13.5 34.5q0 24 15 39.5t43 15.5q32 0 54 -29t22 -65q0 -115 -142 -172z" />
    <glyph glyph-name="hyphen" unicode="-" horiz-adv-x="333" 
d="M44 159v44q124 16 248 24v-44q-124 -14 -248 -24z" />
    <glyph glyph-name="period" unicode="." horiz-adv-x="222" 
d="M58 45q0 22 15.5 37.5t37.5 15.5t37.5 -15.5t15.5 -37.5t-15.5 -37.5t-37.5 -15.5t-37.5 15.5t-15.5 37.5z" />
    <glyph glyph-name="slash" unicode="/" horiz-adv-x="278" 
d="M22 -8h-45l280 650h45z" />
    <glyph glyph-name="zero" unicode="0" 
d="M222 622q-60 0 -86 -71t-26 -234t26 -234t86 -71t86 71t26 234t-26 234t-86 71zM222 642q85 0 135.5 -91.5t50.5 -233.5t-50.5 -233.5t-135.5 -91.5t-135.5 91.5t-50.5 233.5t50.5 233.5t135.5 91.5z" />
    <glyph glyph-name="one" unicode="1" 
d="M104 0v16q52 0 66.5 16.5t14.5 73.5v407q0 35 -14.5 46t-68.5 11v16q84 10 133 49q9 7 15 7q9 0 9 -9v-527q0 -57 14.5 -73.5t64.5 -16.5v-16h-234z" />
    <glyph glyph-name="two" unicode="2" 
d="M103 58h167q47 0 76 29q18 18 23 18q11 0 11 -11q0 -4 -32 -94h-324v20q35 37 76 87t89 116t79.5 133t31.5 114q0 57 -34 90.5t-82 33.5q-85 0 -135 -74l-17 8q30 48 79 81t107 33q70 0 109 -44t39 -103q0 -58 -52 -141.5t-195 -257.5l-13.5 -16l-11 -13.5t-3.5 -5.5
q0 -3 12 -3z" />
    <glyph glyph-name="three" unicode="3" 
d="M83 557l-12 11q67 74 160 74q57 0 88.5 -27t31.5 -75q0 -43 -33.5 -87.5t-89.5 -82.5q34 -14 53 -24t46 -30.5t40 -51.5t13 -72q0 -24 -7.5 -49.5t-26 -53t-46 -49t-72 -35t-98.5 -13.5q-48 0 -80.5 11.5t-32.5 31.5q0 19 20 19q12 0 45 -19t63 -19q24 0 50.5 8t53.5 25
t44 49.5t17 74.5q0 67 -53 106.5t-119 39.5q-25 0 -25 8q0 4 6 8t35 22q127 76 127 152q0 50 -25.5 74.5t-67.5 24.5q-30 0 -52 -12.5t-53 -38.5z" />
    <glyph glyph-name="four" unicode="4" 
d="M250 290v273h-2l-182 -273h184zM250 238h-231v26l254 378h43v-352h78v-52h-78v-238h-66v238z" />
    <glyph glyph-name="five" unicode="5" 
d="M32 -8v16q37 2 78.5 13t89 34t78 67t30.5 102q0 84 -70 124t-195 40l44 246h224q20 0 32.5 9t20 18t14.5 9q10 0 10 -12q0 -3 -2.5 -10t-10 -30t-15.5 -54l-254 4l-23 -118q28 4 39 4q114 0 185 -64t71 -153q0 -39 -15.5 -75.5t-51.5 -73.5t-108 -63t-171 -33z" />
    <glyph glyph-name="six" unicode="6" 
d="M228 366q-52 0 -87 -39.5t-35 -111.5q0 -94 33.5 -148.5t88.5 -54.5q54 0 84 47.5t30 132.5q0 84 -30 129t-84 45zM412 642v-12q-62 -11 -111 -35.5t-78.5 -53t-50 -64t-29 -64.5t-12.5 -58q52 31 102 31q73 0 126 -53t53 -139q0 -90 -59.5 -146t-126.5 -56
q-95 0 -142.5 71.5t-47.5 174.5q0 41 9.5 87t36 100.5t66.5 98.5t108.5 77t155.5 41z" />
    <glyph glyph-name="seven" unicode="7" 
d="M104 676h20q0 -24 10 -33q9 -9 35 -9h261q-34 -87 -132.5 -304t-143.5 -330h-80l66 116l67 117.5l55 101t59 116t51 112.5h-210q-47 0 -63 -9.5t-39 -56.5h-22z" />
    <glyph glyph-name="eight" unicode="8" 
d="M380 510q0 -77 -89 -154q21 -15 33.5 -25.5t33 -33.5t31 -53.5t10.5 -67.5q0 -77 -48.5 -130.5t-132.5 -53.5q-72 0 -118.5 43t-46.5 102q0 99 121 182q-21 13 -34.5 23.5t-32.5 30.5t-29 46.5t-10 58.5q0 67 45 115.5t124 48.5q63 0 103 -37t40 -95zM339 139
q0 49 -30 94.5t-103 69.5q-19 -12 -32.5 -22.5t-32 -29.5t-28.5 -45t-10 -57q0 -64 34.5 -100.5t81.5 -36.5q41 0 80.5 32t39.5 95zM330 509q0 49 -25.5 81t-68.5 32q-50 0 -79 -29t-29 -70q0 -100 128 -146q23 20 36 34.5t25.5 41t12.5 56.5z" />
    <glyph glyph-name="nine" unicode="9" 
d="M214 268q52 0 87 39.5t35 111.5q0 94 -33.5 148.5t-88.5 54.5q-54 0 -84 -47.5t-30 -132.5q0 -84 30 -129t84 -45zM30 -8v12q62 11 111 35.5t78.5 53t50 64t29 64.5t12.5 58q-52 -31 -102 -31q-73 0 -126 53t-53 139q0 90 59.5 146t126.5 56q95 0 142.5 -71.5
t47.5 -174.5q0 -41 -9.5 -87t-36 -100.5t-66.5 -98.5t-108.5 -77t-155.5 -41z" />
    <glyph glyph-name="colon" unicode=":" horiz-adv-x="222" 
d="M111 98q22 0 37.5 -15.5t15.5 -37.5t-15.5 -37.5t-37.5 -15.5t-37.5 15.5t-15.5 37.5t15.5 37.5t37.5 15.5zM111 394q22 0 37.5 -15.5t15.5 -37.5t-15.5 -37.5t-37.5 -15.5t-37.5 15.5t-15.5 37.5t15.5 37.5t37.5 15.5z" />
    <glyph glyph-name="semicolon" unicode=";" horiz-adv-x="222" 
d="M44 -168v16q94 52 94 112q0 18 -13.5 26t-29.5 9.5t-29.5 13t-13.5 34.5q0 24 15 39.5t43 15.5q32 0 54 -29t22 -65q0 -115 -142 -172zM111 394q22 0 37.5 -15.5t15.5 -37.5t-15.5 -37.5t-37.5 -15.5t-37.5 15.5t-15.5 37.5t15.5 37.5t37.5 15.5z" />
    <glyph glyph-name="less" unicode="&#x3c;" horiz-adv-x="600" 
d="M493 41v-47l-386 177v44l386 177v-47l-332 -152z" />
    <glyph glyph-name="equal" unicode="=" horiz-adv-x="600" 
d="M493 290v-44h-386v44h386zM493 140v-44h-386v44h386z" />
    <glyph glyph-name="greater" unicode="&#x3e;" horiz-adv-x="600" 
d="M107 41l332 152l-332 152v47l386 -177v-44l-386 -177v47z" />
    <glyph glyph-name="question" unicode="?" horiz-adv-x="463" 
d="M144 136l2 250q15 -1 48 -1q72 0 98.5 15.5t26.5 50.5q0 33 -13.5 58t-41 42t-43.5 24t-47 17q-21 7 -29.5 15t-8.5 22q0 29 35 29q31 0 60 -11t54.5 -34t41.5 -64.5t16 -95.5q0 -59 -25.5 -98t-73.5 -43q-45 -3 -59 -9t-15 -27q-5 -43 -7 -140h-19zM111 35
q0 18 12.5 30.5t30.5 12.5t30.5 -12.5t12.5 -30.5t-12.5 -30.5t-30.5 -12.5t-30.5 12.5t-12.5 30.5z" />
    <glyph glyph-name="at" unicode="@" horiz-adv-x="800" 
d="M331 257q0 -39 16.5 -58t42.5 -19q42 0 79 66t37 137q0 59 -41 59q-42 0 -88 -53t-46 -132zM520 433l10 38h64l-62 -240q-3 -12 -3 -27q0 -34 38 -34q57 0 92.5 62t35.5 131q0 42 -19 86.5t-52.5 82.5t-88 62t-117.5 24q-116 0 -192.5 -85.5t-76.5 -232.5
q0 -111 77.5 -192.5t200.5 -81.5q90 0 187 43l12 -24q-120 -53 -198 -53q-88 0 -158.5 30.5t-111 78t-62 99.5t-21.5 102q0 149 100.5 244.5t242.5 95.5q131 0 219 -79t88 -199q0 -81 -47 -152.5t-125 -71.5q-22 0 -40 8.5t-27 20.5t-13.5 22t-4.5 15h-1h-2
q-7 -12 -17.5 -24t-35 -26.5t-54.5 -15.5q-38 -2 -64.5 27t-26.5 90q0 81 54 153t132 72q20 0 34.5 -9t19 -16t13.5 -24z" />
    <glyph glyph-name="A" unicode="A" horiz-adv-x="722" 
d="M448 248h-223l-42 -114q-18 -47 -18 -67q0 -44 65 -47v-20h-192v20q49 6 75.5 43.5t84.5 186.5l78 200q34 88 34 94q0 10 5 18l45 68q8 12 17 12q5 0 8.5 -3.5t7 -12t6.5 -19l9 -30t14 -39.5l150 -385q34 -86 53.5 -107t66.5 -26v-20h-249v20q39 4 53.5 12t14.5 24
q0 26 -16 68zM236 276h202l-86 221q-7 20 -14 44h-2q-5 -16 -49 -132z" />
    <glyph glyph-name="B" unicode="B" horiz-adv-x="611" 
d="M49 0v20q50 0 64.5 16.5t14.5 73.5q0 55 3 216.5t3 197.5q0 57 -14.5 73.5t-63.5 16.5v20q22 0 65 -1t63 -1q17 0 46.5 1t50.5 1q121 0 184 -39.5t63 -108.5q0 -39 -14 -67.5t-42.5 -45.5t-48.5 -24.5t-55 -16.5v-2q37 -8 60 -14.5t51.5 -19.5t44.5 -29.5t27 -44
t11 -62.5q0 -47 -23.5 -81t-62.5 -51t-79.5 -24.5t-85.5 -7.5q-12 0 -54 2q-40 2 -60 2h-148zM214 262v-201q0 -31 14.5 -38t73.5 -7q174 0 174 147q0 158 -199 158q-42 0 -52.5 -10.5t-10.5 -48.5zM214 548v-164q0 -27 11.5 -33t55.5 -6q161 0 161 126q0 75 -38 109
t-119 34q-39 0 -55 -15.5t-16 -50.5z" />
    <glyph glyph-name="C" unicode="C" horiz-adv-x="667" 
d="M600 440h-18q-10 31 -25 58.5t-41 57.5t-67 48t-93 18q-93 0 -158.5 -80.5t-65.5 -231.5q0 -132 69.5 -215t179.5 -83q74 0 131 45.5t88 119.5h20l-14 -100q-27 -33 -92 -59t-147 -26q-156 0 -245.5 91t-89.5 218q0 146 91.5 243.5t242.5 97.5q57 0 130.5 -22.5
t108.5 -55.5z" />
    <glyph glyph-name="D" unicode="D" horiz-adv-x="759" 
d="M30 0v20q62 0 78.5 16t16.5 74v414q0 57 -13.5 73.5t-58.5 16.5v20h261q50 0 102 -10t107 -35t98 -61t70.5 -93.5t27.5 -128.5q0 -141 -101.5 -223.5t-239.5 -82.5h-348zM211 524v-428q0 -39 25 -57.5t95 -18.5q133 0 210.5 75.5t77.5 208.5q0 143 -84.5 226.5
t-227.5 83.5q-58 0 -77 -17t-19 -73z" />
    <glyph glyph-name="E" unicode="E" horiz-adv-x="630" 
d="M32 0v20q61 0 77 16t17 74q4 260 4 414q0 57 -15.5 73.5t-72.5 16.5v20h482l21 -114h-16q-28 35 -44 50.5t-47.5 27.5t-76.5 12h-86q-38 0 -48.5 -7t-10.5 -33v-218h103q63 0 80 15t29 72h22v-218h-22q-8 59 -27.5 78t-72.5 19h-112v-252q0 -25 13.5 -33.5t50.5 -8.5h132
q70 0 99.5 21.5t78.5 103.5h19q-6 -15 -34 -149h-543z" />
    <glyph glyph-name="F" unicode="F" horiz-adv-x="593" 
d="M32 634h492q5 -18 18.5 -75.5t21.5 -79.5h-26q-66 97 -95.5 114t-127.5 17h-82q-18 0 -23 -8.5t-6 -35.5l-4 -228h125q62 0 79.5 14t29.5 67h22v-206h-22q-8 55 -27.5 73t-72.5 18h-134v-194q1 -58 17.5 -74t77.5 -16v-20h-277v20q61 0 77 16t17 74q0 35 1.5 125t2 166.5
t0.5 122.5q0 57 -15 73.5t-69 16.5v20z" />
    <glyph glyph-name="G" unicode="G" horiz-adv-x="741" 
d="M644 435h-18q-53 187 -225 187q-113 0 -189 -92t-76 -217q0 -71 20.5 -127t50 -87.5t67 -52t68 -27.5t57.5 -7q139 0 143 83l4 75q3 57 -14 73.5t-76 16.5v20h250v-20q-48 0 -61 -16t-14 -74l-2 -116q-103 -62 -226 -62q-95 0 -168.5 29t-115.5 76.5t-62.5 101
t-20.5 108.5q0 140 101.5 237.5t259.5 97.5q151 0 244 -74q2 -16 2.5 -41t0 -46.5t0.5 -45.5z" />
    <glyph glyph-name="H" unicode="H" horiz-adv-x="815" 
d="M206 348h400v176q0 58 -16 74t-76 16v20h257v-20q-50 0 -64.5 -16.5t-14.5 -73.5v-414q0 -57 14.5 -73.5t64.5 -16.5v-20h-262v20q63 0 80 16t17 74v204h-400v-204q0 -58 16.5 -74t76.5 -16v-20h-262v20q53 0 68 16.5t15 73.5v414q0 57 -14.5 73.5t-63.5 16.5v20h254v-20
q-58 0 -74 -16.5t-16 -73.5v-176z" />
    <glyph glyph-name="I" unicode="I" horiz-adv-x="352" 
d="M206 524v-414q0 -57 14 -73.5t62 -16.5v-20h-240v20q49 0 63.5 16.5t14.5 73.5v414q0 57 -14.5 73.5t-63.5 16.5v20h254v-20q-58 0 -74 -16.5t-16 -73.5z" />
    <glyph glyph-name="J" unicode="J" horiz-adv-x="352" 
d="M21 -178v16q70 28 91.5 91t21.5 195v400q0 57 -13.5 73.5t-60.5 16.5v20h246v-20q-55 0 -70.5 -16.5t-15.5 -73.5v-397q0 -130 -42 -203t-157 -102z" />
    <glyph glyph-name="K" unicode="K" horiz-adv-x="741" 
d="M389 630l234 4v-16q-63 0 -109 -46l-206 -209l288 -283q58 -58 122 -60v-20h-287v20q61 0 61 27q0 24 -75 99l-166 164l-45 -41v-159q0 -57 14 -73.5t62 -16.5v-20h-240v20q49 0 63.5 16.5t14.5 73.5v414q0 57 -14.5 73.5t-63.5 16.5v20h242v-20q-49 0 -63.5 -16.5
t-14.5 -73.5v-224l154 147q94 89 94 129q0 36 -65 34v20z" />
    <glyph glyph-name="L" unicode="L" horiz-adv-x="630" 
d="M587 154h23l-32 -160q-68 4 -101 5t-97 1h-350v20q65 0 82 16t17 74v414q0 57 -15 73.5t-68 16.5v20h267v-20q-64 0 -81 -16t-17 -74v-414q0 -58 10.5 -72t54.5 -14h78q158 0 229 130z" />
    <glyph glyph-name="M" unicode="M" horiz-adv-x="852" 
d="M574 0v20q54 3 71.5 14.5t16.5 43.5l-4 208.5t-6 242.5h-2l-76.5 -163l-92.5 -198t-68 -158h-14q-5 11 -31.5 77t-45.5 103q-55 110 -158 351h-2q-1 -87 -4.5 -226.5t-3.5 -180.5q0 -63 19 -88.5t72 -25.5v-20h-208v20q45 8 62.5 27.5t21.5 77.5q15 192 15 375
q0 74 -15.5 92.5t-74.5 21.5v20h165l178 -404q40 -92 42 -97l241 501h154v-20q-59 -4 -77.5 -23.5t-18.5 -77.5q0 -16 2 -86t4.5 -173.5t3.5 -180.5q1 -29 19 -39.5t67 -13.5v-20h-252z" />
    <glyph glyph-name="N" unicode="N" horiz-adv-x="796" 
d="M45 0v20q36 4 52 12t25 35t9 82v373q0 52 -23 69.5t-79 22.5v20h158q43 -52 453 -496q5 197 5 385q0 45 -19 64.5t-74 26.5v20h215v-20q-53 -7 -72.5 -27t-19.5 -64q0 -71 -13 -523h-18q-25 39 -212.5 237.5t-267.5 300.5h-3v-389q0 -81 15 -102t72 -27v-20h-203z" />
    <glyph glyph-name="O" unicode="O" horiz-adv-x="741" 
d="M370 642q148 0 239.5 -91t91.5 -234t-91.5 -234t-239.5 -91t-239.5 91t-91.5 234t91.5 234t239.5 91zM370 622q-120 0 -179.5 -79.5t-59.5 -225.5t59.5 -225.5t179.5 -79.5t179.5 79.5t59.5 225.5t-59.5 225.5t-179.5 79.5z" />
    <glyph glyph-name="P" unicode="P" horiz-adv-x="574" 
d="M39 0v20q54 0 69.5 16.5t15.5 73.5v414q0 57 -16 73.5t-73 16.5v20h274q42 0 80.5 -8.5t74.5 -26.5t57.5 -53t21.5 -82q0 -54 -24 -93t-67 -60.5t-94 -31.5t-113 -10v24q212 0 212 166q0 42 -16.5 73.5t-43 47t-53.5 23t-55 7.5q-50 0 -64.5 -16.5t-14.5 -73.5v-410
q0 -57 16 -73.5t73 -16.5v-20h-260z" />
    <glyph glyph-name="Q" unicode="Q" horiz-adv-x="741" 
d="M669 -148v-20q-172 0 -253 34t-115 130q-119 23 -190.5 110t-71.5 211q0 143 91.5 234t239.5 91t239.5 -91t91.5 -234q0 -135 -83 -225t-218 -100q83 -140 269 -140zM370 622q-120 0 -179.5 -79.5t-59.5 -225.5t59.5 -225.5t179.5 -79.5t179.5 79.5t59.5 225.5
t-59.5 225.5t-179.5 79.5z" />
    <glyph glyph-name="R" unicode="R" horiz-adv-x="648" 
d="M212 558v-230q118 0 167 30.5t49 113.5q0 65 -44 101.5t-106 36.5q-41 0 -53.5 -10.5t-12.5 -41.5zM42 0v20q54 0 69 16.5t15 73.5q0 65 2 201.5t1 212.5q0 57 -13.5 73.5t-59.5 16.5v20h194q126 0 198 -40.5t72 -123.5q0 -32 -13 -58.5t-30 -41.5t-41 -27t-37 -16.5
t-27 -7.5l165 -244q37 -55 86 -55v-20h-111q-17 0 -41 37l-172 267h-87v-194q0 -57 15.5 -73.5t71.5 -16.5v-20h-257z" />
    <glyph glyph-name="S" unicode="S" horiz-adv-x="500" 
d="M414 612v-133h-16q-47 143 -149 143q-43 0 -81 -29t-38 -79q0 -46 34 -79t82 -54.5l96.5 -44.5t82.5 -62t34 -94q0 -69 -60 -128.5t-166 -59.5q-40 0 -96 9t-70 22q-6 5 -10 20t-7 36t-4.5 39t-2.5 39t-2 27h15q63 -172 185 -172q57 0 100.5 33.5t43.5 94.5q0 36 -18 64
t-47 45t-64.5 32t-70.5 31.5t-64 36.5t-47 52t-18 75q0 68 52.5 117t156.5 49q90 0 149 -30z" />
    <glyph glyph-name="T" unicode="T" horiz-adv-x="704" 
d="M656 656h14v-169h-14q-17 66 -53.5 86.5t-118.5 20.5q-64 0 -78 -13t-14 -75q0 -52 -4.5 -212.5t-4.5 -183.5q0 -52 20 -69.5t82 -20.5v-20h-287v20q69 0 87 16t18 74q0 23 4.5 183.5t4.5 212.5q0 61 -10.5 72.5t-69.5 11.5q-75 0 -115.5 -25.5t-66.5 -77.5h-22l43 169
h21q29 -32 88 -32h376q44 0 60.5 5.5t39.5 26.5z" />
    <glyph glyph-name="U" unicode="U" horiz-adv-x="741" 
d="M30 614v20h271v-20q-70 0 -88.5 -16t-18.5 -74v-316q0 -79 53.5 -127.5t146.5 -48.5q100 0 141 52.5t45 159.5l10 280q2 51 -21.5 70.5t-73.5 19.5v20h215v-20q-53 -6 -68 -33t-18 -121l-8 -234q-1 -49 -11.5 -86.5t-35 -73t-75 -55t-123.5 -19.5q-257 0 -257 218v314
q0 57 -15 73.5t-69 16.5z" />
    <glyph glyph-name="V" unicode="V" horiz-adv-x="704" 
d="M28 634h260v-20q-53 0 -70.5 -13t-17.5 -39q0 -19 20.5 -70.5l67.5 -164.5l87 -218l46 104.5l49 111l40 94.5t31.5 83t10.5 48q0 58 -85 64v20h217v-20q-35 -6 -55 -25.5t-50 -82.5q-178 -377 -224 -514h-16l-236 572q-20 50 -75 50v20z" />
    <glyph glyph-name="W" unicode="W" horiz-adv-x="981" 
d="M26 634h232v-20q-36 0 -51 -12.5t-15 -43.5q0 -16 5.5 -37.5t9.5 -33t18.5 -45t17.5 -41.5l105 -261l122 337l-32 82q-14 35 -28 44.5t-48 10.5v20h248v-20q-82 0 -82 -46q0 -17 17 -65l56 -155.5t73 -214.5h2q3 7 21 53.5l30 78.5l31 84t30.5 88.5t20.5 72t9 53.5
q0 27 -16.5 37t-57.5 14v20h210v-20q-30 -2 -49.5 -15.5t-35.5 -54.5l-215 -552h-14q-16 58 -74 212.5t-77 220.5h-2l-161 -433h-10l-210 541q-18 48 -33.5 64t-46.5 17v20z" />
    <glyph glyph-name="X" unicode="X" horiz-adv-x="704" 
d="M24 0v20q53 12 82.5 36.5t94.5 109.5l117 152l-167 234q-26 36 -44 46.5t-63 15.5v20h261v-20q-61 -2 -61 -31q0 -20 22 -56t84 -122l20 -28q3 4 16 20l23 29l24.5 32.5l25.5 35.5l21.5 32.5t16 29.5t5.5 21q0 34 -67 37v20h231v-20q-88 -1 -175 -117l-107 -142l176 -253
q26 -37 53 -56t67 -26v-20h-282v20q81 1 81 34q0 13 -9 32.5t-26.5 46.5l-33.5 49.5l-40 55.5t-36 51q-154 -183 -154 -225q0 -36 81 -44v-20h-237z" />
    <glyph glyph-name="Y" unicode="Y" horiz-adv-x="667" 
d="M29 634h243v-20q-62 0 -62 -30q0 -7 2 -14.5t8.5 -20l13.5 -25t20.5 -34.5l26 -42l35 -55l41.5 -67l57 87.5l43.5 65.5l28 43t18 34t4.5 25q0 18 -12 25.5t-41 7.5v20h183v-20q-28 -3 -50 -18t-55 -62l-165 -237v-187q0 -62 17 -75.5t85 -14.5v-20h-290v20q68 1 85 14.5
t17 75.5v188l-168 252q-24 36 -40 46.5t-45 17.5v20z" />
    <glyph glyph-name="Z" unicode="Z" horiz-adv-x="630" 
d="M66 466h-23l30 190h21q11 -22 79 -22h409q-280 -394 -417 -606q92 -4 138 -4q59 0 95 4.5t71.5 20t60 46t46.5 81.5h26l-29 -176h-533l419 610h-188q-79 0 -124 -28.5t-81 -115.5z" />
    <glyph glyph-name="bracketleft" unicode="[" horiz-adv-x="278" 
d="M65 -158v816h187v-16h-121v-784h119v-16h-185z" />
    <glyph glyph-name="backslash" unicode="\" horiz-adv-x="278" 
d="M302 -8h-44l-281 650h44z" />
    <glyph glyph-name="bracketright" unicode="]" horiz-adv-x="278" 
d="M213 658v-816h-187v16h121v784h-119v16h185z" />
    <glyph glyph-name="asciicircum" unicode="^" horiz-adv-x="600" 
d="M280 634h40l140 -278h-48l-112 225l-112 -225h-48z" />
    <glyph glyph-name="underscore" unicode="_" horiz-adv-x="500" 
d="M500 -125h-500v50h500v-50z" />
    <glyph glyph-name="grave" unicode="`" horiz-adv-x="259" 
d="M188 444h-31l-112 94q-37 30 -41 41q-2 4 -2 8q0 25 33 25q16 0 25 -6.5t24 -25.5z" />
    <glyph glyph-name="a" unicode="a" horiz-adv-x="426" 
d="M258 67v120l-40 -10q-59 -15 -86.5 -34.5t-27.5 -49.5q0 -29 17 -48t49 -19q35 0 88 41zM258 203v81q0 49 -17 67.5t-51 18.5q-31 0 -48 -16t-21 -35.5t-14.5 -35.5t-29.5 -16q-29 0 -29 27q0 29 56 64.5t111 35.5q113 0 113 -120v-219q0 -29 25 -29q18 0 35 15l10 -11
q-10 -16 -32.5 -27t-45.5 -11q-24 0 -42.5 16t-19.5 43q-64 -59 -131 -59q-42 0 -69.5 22.5t-27.5 55.5q0 48 38 71t136 48z" />
    <glyph glyph-name="b" unicode="b" horiz-adv-x="481" 
d="M128 676h15v-342l32 28.5t38.5 20.5t58.5 11q73 0 127.5 -50t54.5 -145q0 -90 -58.5 -148.5t-150.5 -58.5q-29 0 -65.5 8t-44.5 8q-13 0 -33 -8t-21 -8q-8 0 -8 8v559q0 15 -3 23.5t-7.5 12t-15.5 8.5q-18 8 -18 13v11q0 10 15 16zM143 309v-185q0 -56 30.5 -84t75.5 -28
q59 0 92 42.5t33 123.5q0 86 -34.5 134t-93.5 48q-24 0 -53.5 -13.5t-49.5 -37.5z" />
    <glyph glyph-name="c" unicode="c" horiz-adv-x="389" 
d="M100 203q0 -80 43 -125.5t99 -45.5q28 0 54 13t41.5 25.5t17.5 12.5q7 0 7 -5q0 -17 -51 -51.5t-104 -34.5q-69 0 -123 47.5t-54 144.5q0 96 65.5 153t146.5 57q44 0 75 -15.5t31 -41.5q0 -13 -9 -20t-21 -7q-20 0 -51 25t-60 25q-46 0 -76.5 -44t-30.5 -113z" />
    <glyph glyph-name="d" unicode="d" horiz-adv-x="519" 
d="M358 -8v55q-21 -17 -36 -27t-42 -19t-57 -9q-89 0 -140 58t-51 133q0 88 63.5 149.5t141.5 61.5q72 0 117 -39v196q0 49 -6 60.5t-31 11.5q-26 0 -26 9q0 6 21 13q93 31 100 31q12 0 12 -11v-606q0 -24 19 -24q7 0 16.5 3t11.5 3q5 0 5 -9q0 -5 -2 -7t-11 -5
q-8 -3 -26.5 -8l-42.5 -11zM354 143v91q0 73 -25.5 106.5t-83.5 33.5q-65 0 -102 -49.5t-37 -129.5q0 -81 40 -130t94 -49q34 0 69 22t41 39q4 8 4 66z" />
    <glyph glyph-name="e" unicode="e" horiz-adv-x="407" 
d="M361 258h-256q-7 -26 -7 -59q0 -70 40 -118.5t107 -48.5q51 0 116 44l12 -16q-42 -34 -76 -51t-78 -17q-84 0 -137.5 59t-53.5 131q0 93 56.5 152.5t136.5 59.5q61 0 105.5 -41.5t44.5 -89.5q0 -5 -10 -5zM110 282h191q-3 41 -27.5 66.5t-62.5 25.5q-40 0 -66 -27
t-35 -65z" />
    <glyph glyph-name="f" unicode="f" horiz-adv-x="315" 
d="M35 0v16q40 0 52.5 17t12.5 73v246h-58q0 19 10.5 25.5t47.5 14.5q2 129 54 206.5t152 77.5q42 0 68 -14t26 -37q0 -12 -8.5 -19.5t-22.5 -7.5q-16 0 -50.5 24t-55.5 24q-93 0 -93 -198v-62h104q13 0 13 -10q0 -2 -1 -6t-2.5 -8t-1.5 -5q-2 -5 -13 -5h-99v-246
q0 -57 14.5 -73.5t63.5 -16.5v-16h-213z" />
    <glyph glyph-name="g" unicode="g" horiz-adv-x="481" 
d="M380 246q0 -59 -46.5 -99t-105.5 -40q-27 0 -45 5l-19.5 -12.5l-20.5 -13t-13 -12.5t-6 -16q0 -21 37 -28.5t169 -13.5q102 -4 102 -87q0 -47 -21 -80.5t-57 -51t-75.5 -25.5t-85.5 -8q-43 0 -80 6.5t-66 26.5t-29 51q0 33 25 56t89 55q-31 15 -50 38t-19 45
q0 14 11.5 25.5t39.5 28.5t42 27q-93 40 -93 131q0 64 43.5 102t113.5 38q37 0 84.5 -12t51.5 -12q10 0 36.5 6t41.5 6q34 0 34 -21q0 -27 -32 -27q-10 0 -25 6t-22 6q-22 0 -22 -21q0 -11 6.5 -32t6.5 -47zM88 -140q0 -36 39 -56t97 -20q65 0 111.5 28.5t46.5 80.5
q0 33 -42 46t-170 13q-82 -32 -82 -92zM316 225q0 66 -27 107.5t-76 41.5q-39 0 -62.5 -31.5t-23.5 -83.5q0 -58 27 -95t76 -37q40 0 63 25.5t23 72.5z" />
    <glyph glyph-name="h" unicode="h" horiz-adv-x="519" 
d="M28 0v16q35 0 46.5 17t11.5 73v388q0 54 -4 78t-12.5 32t-29.5 14v16l67 31q24 11 32 11q17 0 17 -17v-314q47 49 126 49q145 0 145 -139v-149q0 -56 11.5 -73t47.5 -17v-16h-180v16q30 0 40.5 17t10.5 73v132q0 122 -104 122q-57 0 -97 -53v-201q0 -57 13 -73.5
t56 -16.5v-16h-197z" />
    <glyph glyph-name="i" unicode="i" horiz-adv-x="259" 
d="M36 0v16q35 0 46.5 16.5t11.5 71.5v137q0 53 -6 68.5t-27 18.5t-21 13q0 11 14 17q6 2 30 11.5l44 17t25 7.5q12 0 12 -11q0 -2 -0.5 -29t-0.5 -46v-204q0 -55 11.5 -71.5t47.5 -16.5v-16h-187zM86 599q0 18 12.5 30.5t30.5 12.5t30.5 -12.5t12.5 -30.5t-12.5 -30.5
t-30.5 -12.5t-30.5 12.5t-12.5 30.5z" />
    <glyph glyph-name="j" unicode="j" horiz-adv-x="278" 
d="M35 -236v16q42 21 63 49.5t21 80.5v294q0 65 -15.5 90.5t-54.5 31.5q-13 2 -13 11q0 5 12 10q116 47 121 47q20 0 20 -30v-395q0 -77 -44 -133.5t-110 -71.5zM126 642q18 0 30.5 -12.5t12.5 -30.5t-12.5 -30.5t-30.5 -12.5t-30.5 12.5t-12.5 30.5t12.5 30.5t30.5 12.5z
" />
    <glyph glyph-name="k" unicode="k" horiz-adv-x="537" 
d="M93 106v433q0 38 -6 49.5t-33 24.5q-14 6 -14 15t13 13q4 1 29 11t45.5 17t24.5 7q11 0 11 -19v-447q33 13 94 61t61 74q0 21 -43 25v16h169v-16q-36 -6 -70.5 -30t-125.5 -103l158 -165q47 -49 85 -56v-16h-206v16q51 1 51 20q0 16 -53 73t-89 88l-31 -21v-70
q0 -56 12 -73t50 -17v-16h-190v16q35 0 46.5 17t11.5 73z" />
    <glyph glyph-name="l" unicode="l" horiz-adv-x="259" 
d="M28 0v16q35 0 46.5 17t11.5 73v433q0 38 -6 49.5t-33 24.5q-14 8 -14 15q0 9 13 13q4 1 29 11t45.5 17t24.5 7q11 0 11 -19v-551q0 -56 12 -73t50 -17v-16h-190z" />
    <glyph glyph-name="m" unicode="m" horiz-adv-x="796" 
d="M25 0v16q37 0 49 17t12 73v173q0 33 -7 44.5t-24 14.5q-18 4 -18 9q0 3 20 14q74 39 82 39q15 0 15 -15v-64q43 39 74.5 56t74.5 17q83 0 116 -70q6 4 26 19.5t33.5 24.5t37.5 17.5t48 8.5q62 0 98 -36t36 -102v-150q0 -56 11.5 -73t47.5 -17v-16h-188v16q36 0 47.5 17
t11.5 73v140q0 58 -21 83t-65 25q-59 0 -115 -48v-200q0 -56 12.5 -73t53.5 -17v-16h-204v16q42 0 55 16.5t13 73.5v143q0 59 -21 85t-64 26q-55 0 -116 -66v-188q0 -56 12 -73t50 -17v-16h-193z" />
    <glyph glyph-name="n" unicode="n" horiz-adv-x="519" 
d="M25 0v16q41 0 53.5 17t12.5 73v187q0 16 -4.5 22.5t-19.5 16.5q-12 8 -12 13q0 8 17 17q62 38 74 38q11 0 11 -12v-41q71 47 133 47q25 0 46.5 -5.5t43.5 -19.5t34.5 -43t12.5 -71v-149q0 -56 11.5 -73t47.5 -17v-16h-188v16q36 0 47.5 17t11.5 73v132q0 122 -104 122
q-50 0 -92 -50v-204q0 -56 12 -73t49 -17v-16h-197z" />
    <glyph glyph-name="o" unicode="o" horiz-adv-x="463" 
d="M231 394q82 0 142.5 -55t60.5 -146t-60.5 -146t-142.5 -55t-142.5 55t-60.5 146t60.5 146t142.5 55zM231 374q-123 0 -123 -181t123 -181t123 181t-123 181z" />
    <glyph glyph-name="p" unicode="p" horiz-adv-x="500" 
d="M161 14v-181q0 -28 12 -36.5t64 -16.5v-16h-206v16q41 9 50.5 17.5t9.5 35.5v455q0 21 -6.5 33.5t-14 15.5t-14 7t-6.5 9q0 2 1 3.5t3 3l4 3t6.5 3t7.5 3t9 3.5t10 4l16.5 8t26.5 11.5t19 4.5q8 0 8 -11v-51q22 18 35.5 27.5t40.5 19t58 9.5q28 0 55.5 -9t55.5 -29.5
t45 -60.5t17 -95q0 -88 -52 -148t-156 -60q-52 0 -99 22zM161 316v-130q0 -97 21.5 -135.5t87.5 -38.5q65 0 96.5 46.5t31.5 114.5q0 94 -41 142.5t-96 48.5q-44 0 -100 -48z" />
    <glyph glyph-name="q" unicode="q" horiz-adv-x="519" 
d="M368 86v179q0 51 -36 80t-98 29q-53 0 -91.5 -50.5t-38.5 -116.5q0 -80 55.5 -132.5t114.5 -52.5q37 0 73 19q13 8 17 16t4 29zM426 394l14 -2q-2 -38 -2 -73v-450q0 -55 11.5 -72t45.5 -17v-16h-199v16q45 0 58.5 16.5t13.5 72.5v150q-57 -27 -130 -27q-88 0 -148 56.5
t-60 134.5q0 82 56.5 146.5t157.5 64.5q46 0 90.5 -10t58.5 -10q20 0 33 20z" />
    <glyph glyph-name="r" unicode="r" horiz-adv-x="370" 
d="M42 0v16q37 0 48.5 17t11.5 73v178q0 32 -24 43q-19 9 -19 14q0 6 7 10t39 18q19 8 31 16l17 11.5t9 3.5q10 0 10 -11v-33q0 -12 10 -12q3 0 20 12.5t42.5 25t47.5 12.5q44 0 44 -35q0 -34 -46 -34q-6 0 -25.5 1.5t-29.5 1.5q-63 0 -63 -72v-164q0 -46 11.5 -60t50.5 -16
v-16h-192z" />
    <glyph glyph-name="s" unicode="s" horiz-adv-x="333" 
d="M265 373l2 -66q0 -8 -6 -8t-10 6q-37 69 -85 69q-24 0 -39 -15t-15 -43q0 -33 28.5 -56.5t62.5 -36.5t62.5 -41.5t28.5 -69.5t-38.5 -80.5t-102.5 -39.5q-40 0 -77.5 18.5t-37.5 33.5q0 3 5 26t5 28q0 10 11 10q4 0 13 -24t30.5 -48t56.5 -24q26 0 47.5 18.5t21.5 52.5
q0 27 -18.5 48.5t-45.5 35.5l-54 29t-45.5 38t-18.5 53q0 43 36.5 75t98.5 32q38 0 77 -13q7 -2 7 -8z" />
    <glyph glyph-name="t" unicode="t" horiz-adv-x="296" 
d="M271 386v-34h-70q-32 0 -43.5 -13.5t-11.5 -58.5v-193q0 -61 64 -61q19 0 70 8v-20q-62 -22 -101 -22q-103 0 -103 100v222q0 24 -2 30.5t-10 9.5q-2 1 -11 2.5t-15 4.5t-6 7q0 5 17 22l25.5 26l19.5 20.5l14 14.5l10.5 10.5t7 6t5.5 3.5t4 1q11 0 11 -16v-70h125z" />
    <glyph glyph-name="u" unicode="u" horiz-adv-x="519" 
d="M30 386l128 8v-266q0 -50 24.5 -76t63.5 -26q34 0 68.5 21t41.5 44v163q0 70 -11.5 89.5t-52.5 26.5v16l134 8v-304q0 -47 25 -47q10 0 37 8v-23l-126 -32v61q-21 -20 -35.5 -31t-46.5 -22.5t-70 -11.5q-72 0 -97 36t-25 98v99q0 64 -5 92t-15.5 38t-37.5 15v16z" />
    <glyph glyph-name="v" unicode="v" horiz-adv-x="463" 
d="M28 386h166v-16q-25 -1 -35.5 -8t-10.5 -24q0 -11 18.5 -54.5l44.5 -105t39 -98.5q90 225 90 260q0 26 -46 30v16h120v-16q-19 -2 -31.5 -21t-41.5 -95l-99 -262h-22l-134 318q-16 39 -25 48t-33 12v16z" />
    <glyph glyph-name="w" unicode="w" horiz-adv-x="722" 
d="M34 386h174v-16q-27 -2 -37.5 -10t-10.5 -25q0 -34 90 -246q24 43 60.5 115.5t36.5 83.5q0 5 -5 20l-12 26q-6 15 -20 24.5t-28 11.5v16h183v-16q-16 -3 -24 -5t-18 -11t-10 -22q0 -40 94 -252q95 217 95 247q0 18 -9 27t-33 16v16h134v-16q-27 -10 -42.5 -32.5
t-48.5 -97.5l-109 -248h-24l-102 277l-130 -277h-22l-134 332q-17 42 -48 46v16z" />
    <glyph glyph-name="x" unicode="x" horiz-adv-x="463" 
d="M435 16v-16h-180v16q52 0 52 21q0 8 -14.5 27.5t-38.5 48.5t-34 44q-87 -105 -87 -118q0 -22 41 -23v-16h-146v16q29 5 46.5 15t40.5 39l89 113l-106 146q-29 41 -63 41v16h180v-16q-28 0 -37 -4t-9 -14q0 -9 12 -27t33.5 -46t30.5 -41q77 93 77 109q0 23 -40 23v16h135
v-16q-17 -2 -32 -13t-45 -47l-81 -96l104 -139q34 -45 72 -59z" />
    <glyph glyph-name="y" unicode="y" 
d="M18 386h181v-16q-27 -1 -38 -9.5t-11 -26.5q0 -15 17.5 -58l41.5 -103t35 -102h2q10 33 32.5 99t35 107t12.5 54q0 19 -11 27t-33 12v16h124v-16q-19 -8 -29.5 -23t-27.5 -61l-146 -394q-21 -58 -46 -93t-61 -35q-19 0 -29.5 10.5t-10.5 24.5q0 18 15 28t54 18
q23 5 32 15t24 51q24 66 24 75q0 5 -7 21l-127 311q-10 24 -20.5 35t-32.5 17v16z" />
    <glyph glyph-name="z" unicode="z" horiz-adv-x="463" 
d="M140 24h132q40 0 68 14t42 31.5t35 52.5h16l-30 -122h-359l2 13l270 349h-115q-89 0 -138 -92h-18l34 116h331z" />
    <glyph glyph-name="braceleft" unicode="{" horiz-adv-x="278" 
d="M104 -40v176q0 50 -15 75t-57 38q42 13 57 38t15 75v176q0 82 35.5 110t106.5 28v-11q-42 -11 -59 -40t-17 -82v-167q0 -57 -16.5 -85.5t-68.5 -40.5v-2q52 -12 68.5 -40.5t16.5 -85.5v-167q0 -53 17 -82t59 -40v-11q-71 0 -106.5 28t-35.5 110z" />
    <glyph glyph-name="bar" unicode="|" horiz-adv-x="222" 
d="M89 0v676h44v-676h-44z" />
    <glyph glyph-name="braceright" unicode="}" horiz-adv-x="278" 
d="M174 538v-176q0 -50 15 -75t57 -38q-42 -13 -57 -38t-15 -75v-176q0 -82 -35.5 -110t-106.5 -28v11q42 11 59 40t17 82v167q0 57 16.5 85.5t68.5 40.5v2q-52 12 -68.5 40.5t-16.5 85.5v167q0 53 -17 82t-59 40v11q71 0 106.5 -28t35.5 -110z" />
    <glyph glyph-name="asciitilde" unicode="~" horiz-adv-x="600" 
d="M449 244l27 -32q-14 -20 -24.5 -32t-29.5 -23t-41 -11q-32 0 -78 26q-48 26 -87 26t-65 -55l-27 32q35 66 95 66q31 0 85 -24q60 -28 78 -28q20 0 34.5 14t32.5 41z" />
    <glyph glyph-name="exclamdown" unicode="&#xa1;" horiz-adv-x="333" 
d="M181 254l9 -162q1 -23 11.5 -148t10.5 -148q0 -68 -46 -68t-46 61q0 12 10 122l34 343h17zM209 351q0 -18 -12.5 -30.5t-30.5 -12.5t-30.5 12.5t-12.5 30.5t12.5 30.5t30.5 12.5t30.5 -12.5t12.5 -30.5z" />
    <glyph glyph-name="cent" unicode="&#xa2;" 
d="M292 335l-96 -280q34 -23 71 -23q28 0 54 13t41.5 25.5t17.5 12.5q7 0 7 -5q0 -17 -51 -51.5t-104 -34.5q-28 0 -55 9l-49 -141h-32l53 152q-94 47 -94 172q0 96 65.5 153t146.5 57q10 0 13 -1l42 123h32l-43 -127q62 -14 62 -52q0 -13 -9 -20t-21 -7q-20 0 -51 25z
M171 75l95 277q-14 8 -34 8q-46 0 -76.5 -44t-30.5 -113q0 -79 46 -128z" />
    <glyph glyph-name="sterling" unicode="&#xa3;" 
d="M282 348v-34h-103q0 -76 -7 -120.5t-31 -111.5q28 2 35 2q26 0 78.5 -9t70.5 -9q27 0 45 8t25 17t17 27l12 -3q-5 -47 -33.5 -85t-83.5 -38q-43 0 -99 33q-58 31 -69 31q-6 0 -37 -31q-33 -33 -62 -33q-24 0 -24 29q0 35 15 44t73 15q9 41 9 78q0 68 -14 156h-80v34h77
q-6 52 -6 94q0 92 44 146t116 54q59 0 91 -31.5t32 -64.5q0 -45 -43 -45q-15 0 -26 11t-11 29q0 10 4 19.5t4 16.5q0 19 -12.5 32t-35.5 13q-44 0 -66.5 -34t-22.5 -92q0 -55 12 -148h106z" />
    <glyph glyph-name="currency" unicode="&#xa4;" 
d="M383 511l33 -33l-43 -43q41 -52 41 -118t-41 -118l43 -43l-33 -33l-43 43q-52 -41 -118 -41t-118 41l-43 -43l-33 33l43 43q-41 52 -41 118t41 118l-43 43l33 33l43 -43q52 41 118 41q67 0 118 -41zM222 465q-61 0 -101.5 -43t-40.5 -105t40.5 -105t101.5 -43t101.5 43
t40.5 105t-40.5 105t-101.5 43z" />
    <glyph glyph-name="yen" unicode="&#xa5;" 
d="M294 360l-37 -70h165v-34h-165v-146q0 -62 12.5 -75.5t63.5 -14.5v-20h-226v20q54 1 67 14.5t13 75.5v146h-165v34h165v8l-32 62h-133v34h115l-82 156q-19 36 -31 46.5t-36 17.5v20h192v-20q-38 -4 -45 -12q-5 -6 -5 -18q0 -9 3.5 -20.5t14 -35l20.5 -44.5l34 -69.5
l44 -88.5l44.5 87.5l34.5 65.5t22 43t14 34t4 25q0 13 -5.5 19.5t-13.5 9t-23 4.5v20h144v-20q-17 -2 -25 -5t-23.5 -20.5t-34.5 -54.5l-73 -140h111v-34h-128z" />
    <glyph glyph-name="brokenbar" unicode="&#xa6;" horiz-adv-x="222" 
d="M89 0v253h44v-253h-44zM89 423v253h44v-253h-44z" />
    <glyph glyph-name="section" unicode="&#xa7;" horiz-adv-x="500" 
d="M107 523q0 48 37.5 83.5t100.5 35.5q61 0 96 -30t35 -65q0 -24 -15 -38t-34 -14q-43 0 -43 38q0 20 17 34.5t17 20.5q0 12 -20.5 23t-49.5 11q-46 0 -68.5 -23.5t-22.5 -52.5q0 -28 28 -60.5t68 -63.5l80 -63.5t68 -72t28 -77.5q1 -56 -36.5 -86.5t-99.5 -32.5
q27 -22 44 -38.5t35 -46.5t18 -59q0 -50 -38 -89t-111 -39q-57 0 -95 27t-38 70q0 24 15.5 37.5t35.5 13.5q17 0 29 -11t12 -28q0 -18 -15.5 -32.5t-15.5 -22.5q0 -34 77 -34q38 0 66 21.5t28 54.5q0 31 -28 64t-67.5 62.5l-79 61t-67.5 70.5t-28 80q0 36 17.5 64.5
t44.5 41.5q26 12 76 12q-57 48 -79 82.5t-22 70.5zM303 110q37 0 59.5 19t22.5 51q0 48 -68.5 109t-127.5 61q-34 0 -54.5 -19.5t-20.5 -51.5q0 -51 69.5 -110t119.5 -59z" />
    <glyph glyph-name="dieresis" unicode="&#xa8;" horiz-adv-x="259" 
d="M-6 519q0 19 14 33t33 14t33 -14t14 -33t-14 -33t-33 -14t-33 14t-14 33zM172 519q0 19 14 33t33 14t33 -14t14 -33t-14 -33t-33 -14t-33 14t-14 33z" />
    <glyph glyph-name="copyright" unicode="&#xa9;" horiz-adv-x="800" 
d="M400 642q133 0 225 -95t92 -230t-92 -230t-225 -95t-225 95t-92 230t92 230t225 95zM400 602q-110 0 -189.5 -86t-79.5 -199t79.5 -199t189.5 -86t189.5 86t79.5 199t-79.5 199t-189.5 86zM543 238h15l-15 -65q-2 -10 -25 -18q-45 -15 -98 -15q-87 0 -142.5 46t-55.5 140
q0 67 53 123.5t150 56.5q49 0 97 -16q21 -8 21 -20v-66h-16q-3 36 -28 61t-77 25q-66 0 -100.5 -44t-35.5 -116q-1 -79 35 -126.5t108 -47.5q81 0 114 82z" />
    <glyph glyph-name="ordfeminine" unicode="&#xaa;" horiz-adv-x="256" 
d="M156 456v58l-26 -6q-74 -17 -74 -46q0 -13 11.5 -23.5t31.5 -10.5q25 0 57 28zM156 530v53q0 39 -44 39q-20 0 -31 -9t-13.5 -19t-9.5 -19t-19 -9q-19 0 -19 16q0 18 36 39t72 21q74 0 74 -66v-137q0 -9 5 -14t11 -5q9 0 24 11l5 -7q-17 -24 -50 -24q-16 0 -28 10t-13 26
q-43 -36 -85 -36q-27 0 -45 14t-18 34q0 30 24.5 44t88.5 29z" />
    <glyph glyph-name="guillemotleft" unicode="&#xab;" horiz-adv-x="500" 
d="M84 193v2q105 88 148 137q9 10 18 10q7 0 7 -8q0 -10 -49.5 -73t-49.5 -67t49.5 -67.5t49.5 -74.5q0 -8 -8 -8q-5 0 -26.5 21l-61.5 59.5t-77 68.5zM243 193v2q105 88 148 137q9 10 18 10q7 0 7 -8q0 -10 -49.5 -73t-49.5 -67t49.5 -67.5t49.5 -74.5q0 -8 -8 -8
q-5 0 -26.5 21l-61.5 59.5t-77 68.5z" />
    <glyph glyph-name="logicalnot" unicode="&#xac;" horiz-adv-x="600" 
d="M449 89v164h-342v44h386v-208h-44z" />
    <glyph glyph-name="registered" unicode="&#xae;" horiz-adv-x="800" 
d="M400 642q133 0 225 -95t92 -230t-92 -230t-225 -95t-225 95t-92 230t92 230t225 95zM400 602q-110 0 -189.5 -86t-79.5 -199t79.5 -199t189.5 -86t189.5 86t79.5 199t-79.5 199t-189.5 86zM249 478v16h163q45 0 77 -21.5t32 -63.5q0 -36 -20.5 -62t-54.5 -37l54 -75
q48 -63 75 -80v-8h-56q-9 0 -18 6.5t-19.5 21.5t-20 31l-27 43.5l-33.5 51.5h-50v-91q0 -32 5 -37.5t41 -9.5v-16h-148v16q36 4 41 9.5t5 37.5v221q0 33 -5 38t-41 9zM351 478v-161h45q34 0 51.5 23.5t17.5 64.5q0 73 -72 73h-42z" />
    <glyph glyph-name="macron" unicode="&#xaf;" horiz-adv-x="259" 
d="M-4 486v54h266v-54h-266z" />
    <glyph glyph-name="degree" unicode="&#xb0;" horiz-adv-x="400" 
d="M200 390q44 0 75 32t31 77t-31 77t-75 32t-75 -32t-31 -77t31 -77t75 -32zM200 356q-60 0 -102 41.5t-42 101.5t42 101.5t102 41.5t102 -41.5t42 -101.5t-42 -101.5t-102 -41.5z" />
    <glyph glyph-name="plusminus" unicode="&#xb1;" horiz-adv-x="600" 
d="M278 252v134h44v-134h171v-44h-171v-134h-44v134h-171v44h171zM107 0v44h386v-44h-386z" />
    <glyph glyph-name="twosuperior" unicode="&#xb2;" horiz-adv-x="266" 
d="M226 256h-210v18q55 53 115.5 134t60.5 131q0 31 -21 50t-51 19q-58 0 -88 -43l-11 9q19 28 51 48t68 20q48 0 74 -26t26 -62q0 -39 -33 -91.5t-124 -143.5l-20 -20q0 -3 8 -3h105q34 0 49 13q13 11 15 11q7 0 7 -7q0 -1 -3.5 -10.5l-9 -24z" />
    <glyph glyph-name="threesuperior" unicode="&#xb3;" horiz-adv-x="266" 
d="M54 587l-8 11q44 44 104 44q35 0 57.5 -16.5t22.5 -44.5q0 -52 -82 -102q23 -8 36.5 -14t31 -18.5t26 -31t8.5 -43.5q0 -43 -40 -81.5t-125 -38.5q-30 0 -52 7.5t-22 18.5t11 11q9 0 31 -9t41 -8q37 -1 71.5 20.5t34.5 68.5q0 40 -33.5 63.5t-76.5 23.5q-17 0 -17 5
q0 3 27 18q80 48 80 91q0 27 -16 41.5t-43 14.5q-29 0 -67 -31z" />
    <glyph glyph-name="acute" unicode="&#xb4;" horiz-adv-x="259" 
d="M83 444h-31l104 136q15 19 24 25.5t25 6.5q33 0 33 -25q0 -14 -38 -45q-3 -3 -5 -4z" />
    <glyph glyph-name="mu" unicode="&#xb5;" horiz-adv-x="519" 
d="M30 386l128 8v-266q0 -50 24.5 -76t63.5 -26q34 0 68.5 21t41.5 44v163q0 70 -11.5 89.5t-52.5 26.5v16l134 8v-304q0 -47 25 -47q10 0 37 8v-23l-126 -32v61q-21 -20 -35.5 -31t-46.5 -22.5t-70 -11.5q-33 0 -52 8v-236h-128v16q26 5 37 15t16 38t5 92v300q0 64 -5 92
t-15.5 38t-37.5 15v16z" />
    <glyph glyph-name="paragraph" unicode="&#xb6;" horiz-adv-x="600" 
d="M537 634v-24q-54 -1 -68 -13.5t-14 -56.5v-674q0 -43 14 -54t68 -16v-24h-140v832h-61v-832h-140v24q54 5 68 15.5t14 54.5v357q-99 0 -148.5 57t-49.5 156q0 105 48.5 151.5t160.5 46.5h248z" />
    <glyph glyph-name="periodcentered" unicode="&#xb7;" horiz-adv-x="222" 
d="M58 193q0 22 15.5 37.5t37.5 15.5t37.5 -15.5t15.5 -37.5t-15.5 -37.5t-37.5 -15.5t-37.5 15.5t-15.5 37.5z" />
    <glyph glyph-name="cedilla" unicode="&#xb8;" horiz-adv-x="259" 
d="M76 -8l24 2l-12 -52q25 -3 39.5 -6t30 -9.5t23 -19t7.5 -31.5q0 -27 -26.5 -46.5t-72.5 -19.5q-52 0 -111 22l15 27q47 -25 84 -25q55 0 55 38q0 42 -58 42q-12 0 -23 -3z" />
    <glyph glyph-name="onesuperior" unicode="&#xb9;" horiz-adv-x="266" 
d="M59 256v16q31 0 40 9.5t9 40.5v236q0 21 -9 27.5t-42 6.5v16q54 5 87 30q4 4 10 4q8 0 8 -7v-313q0 -31 9 -40.5t40 -9.5v-16h-152z" />
    <glyph glyph-name="ordmasculine" unicode="&#xba;" horiz-adv-x="278" 
d="M8 521q0 55 39.5 88t92.5 33t92 -33t39 -88t-39 -88t-92 -33t-92.5 33t-39.5 88zM60 521q0 -101 80 -101q79 0 79 101t-79 101q-80 0 -80 -101z" />
    <glyph glyph-name="guillemotright" unicode="&#xbb;" horiz-adv-x="500" 
d="M416 193v-2q-105 -88 -148 -137q-9 -10 -18 -10q-7 0 -7 8q0 10 49.5 73t49.5 67t-49.5 67.5t-49.5 74.5q0 8 8 8q5 0 26.5 -21l61.5 -59.5t77 -68.5zM257 193v-2q-105 -88 -148 -137q-9 -10 -18 -10q-7 0 -7 8q0 10 49.5 73t49.5 67t-49.5 67.5t-49.5 74.5q0 8 8 8
q5 0 26.5 -21l61.5 -59.5t77 -68.5z" />
    <glyph glyph-name="onequarter" unicode="&#xbc;" horiz-adv-x="666" 
d="M554 174v163h-2l-118 -163h120zM554 140h-151v18l165 228h34v-212h44v-34h-44v-140h-48v140zM162 -8h-49l452 650h49zM59 256v16q31 0 40 9.5t9 40.5v236q0 21 -9 27.5t-42 6.5v16q54 5 87 30q4 4 10 4q8 0 8 -7v-313q0 -31 9 -40.5t40 -9.5v-16h-152z" />
    <glyph glyph-name="onehalf" unicode="&#xbd;" horiz-adv-x="666" 
d="M132 -8h-49l452 650h49zM626 0h-210v18q55 53 115.5 134t60.5 131q0 31 -21 50t-51 19q-58 0 -88 -43l-11 9q19 28 51 48t68 20q48 0 74 -26t26 -62q0 -39 -33 -91.5t-124 -143.5l-20 -20q0 -3 8 -3h105q34 0 49 13q13 11 15 11q7 0 7 -7q0 -1 -3.5 -10.5l-9 -24zM59 256
v16q31 0 40 9.5t9 40.5v236q0 21 -9 27.5t-42 6.5v16q54 5 87 30q4 4 10 4q8 0 8 -7v-313q0 -31 9 -40.5t40 -9.5v-16h-152z" />
    <glyph glyph-name="threequarters" unicode="&#xbe;" horiz-adv-x="666" 
d="M554 174v163h-2l-118 -163h120zM554 140h-151v18l165 228h34v-212h44v-34h-44v-140h-48v140zM162 -8h-49l452 650h49zM54 587l-8 11q44 44 104 44q35 0 57.5 -16.5t22.5 -44.5q0 -52 -82 -102q23 -8 36.5 -14t31 -18.5t26 -31t8.5 -43.5q0 -43 -40 -81.5t-125 -38.5
q-30 0 -52 7.5t-22 18.5t11 11q9 0 31 -9t41 -8q37 -1 71.5 20.5t34.5 68.5q0 40 -33.5 63.5t-76.5 23.5q-17 0 -17 5q0 3 27 18q80 48 80 91q0 27 -16 41.5t-43 14.5q-29 0 -67 -31z" />
    <glyph glyph-name="questiondown" unicode="&#xbf;" horiz-adv-x="463" 
d="M319 250l-2 -250q-15 1 -48 1q-72 0 -98.5 -15.5t-26.5 -50.5q0 -33 13.5 -58t41 -42t43.5 -24t47 -17q21 -7 29.5 -15t8.5 -22q0 -29 -35 -29q-31 0 -60 11t-54.5 34t-41.5 64.5t-16 95.5q0 59 25.5 98t73.5 43q45 3 59 9t15 27q5 43 7 140h19zM352 351
q0 -18 -12.5 -30.5t-30.5 -12.5t-30.5 12.5t-12.5 30.5t12.5 30.5t30.5 12.5t30.5 -12.5t12.5 -30.5z" />
    <glyph glyph-name="Agrave" unicode="&#xc0;" horiz-adv-x="722" 
d="M448 248h-223l-42 -114q-18 -47 -18 -67q0 -44 65 -47v-20h-192v20q49 6 75.5 43.5t84.5 186.5l78 200q34 88 34 94q0 10 5 18l45 68q8 12 17 12q5 0 8.5 -3.5t7 -12t6.5 -19l9 -30t14 -39.5l150 -385q34 -86 53.5 -107t66.5 -26v-20h-249v20q39 4 53.5 12t14.5 24
q0 26 -16 68zM236 276h202l-86 221q-7 20 -14 44h-2q-5 -16 -49 -132zM432 670h-31l-112 94q-37 30 -41 41q-2 4 -2 8q0 25 33 25q16 0 25 -6.5t24 -25.5z" />
    <glyph glyph-name="Aacute" unicode="&#xc1;" horiz-adv-x="722" 
d="M448 248h-223l-42 -114q-18 -47 -18 -67q0 -44 65 -47v-20h-192v20q49 6 75.5 43.5t84.5 186.5l78 200q34 88 34 94q0 10 5 18l45 68q8 12 17 12q5 0 8.5 -3.5t7 -12t6.5 -19l9 -30t14 -39.5l150 -385q34 -86 53.5 -107t66.5 -26v-20h-249v20q39 4 53.5 12t14.5 24
q0 26 -16 68zM236 276h202l-86 221q-7 20 -14 44h-2q-5 -16 -49 -132zM327 670h-31l104 136q15 19 24 25.5t25 6.5q33 0 33 -25q0 -14 -38 -45q-3 -3 -5 -4z" />
    <glyph glyph-name="Acircumflex" unicode="&#xc2;" horiz-adv-x="722" 
d="M448 248h-223l-42 -114q-18 -47 -18 -67q0 -44 65 -47v-20h-192v20q49 6 75.5 43.5t84.5 186.5l78 200q34 88 34 94q0 10 5 18l45 68q8 12 17 12q5 0 8.5 -3.5t7 -12t6.5 -19l9 -30t14 -39.5l150 -385q34 -86 53.5 -107t66.5 -26v-20h-249v20q39 4 53.5 12t14.5 24
q0 26 -16 68zM236 276h202l-86 221q-7 20 -14 44h-2q-5 -16 -49 -132zM344 838h54l108 -168h-28l-107 107l-107 -107h-28z" />
    <glyph glyph-name="Atilde" unicode="&#xc3;" horiz-adv-x="722" 
d="M448 248h-223l-42 -114q-18 -47 -18 -67q0 -44 65 -47v-20h-192v20q49 6 75.5 43.5t84.5 186.5l78 200q34 88 34 94q0 10 5 18l45 68q8 12 17 12q5 0 8.5 -3.5t7 -12t6.5 -19l9 -30t14 -39.5l150 -385q34 -86 53.5 -107t66.5 -26v-20h-249v20q39 4 53.5 12t14.5 24
q0 26 -16 68zM236 276h202l-86 221q-7 20 -14 44h-2q-5 -16 -49 -132zM488 806h20q-4 -94 -84 -94q-25 0 -64 13q-41 13 -58 13t-26.5 -6.5t-12 -12.5t-5.5 -19h-20q5 90 80 90q21 0 54 -11t72 -11q31 0 44 38z" />
    <glyph glyph-name="Adieresis" unicode="&#xc4;" horiz-adv-x="722" 
d="M448 248h-223l-42 -114q-18 -47 -18 -67q0 -44 65 -47v-20h-192v20q49 6 75.5 43.5t84.5 186.5l78 200q34 88 34 94q0 10 5 18l45 68q8 12 17 12q5 0 8.5 -3.5t7 -12t6.5 -19l9 -30t14 -39.5l150 -385q34 -86 53.5 -107t66.5 -26v-20h-249v20q39 4 53.5 12t14.5 24
q0 26 -16 68zM236 276h202l-86 221q-7 20 -14 44h-2q-5 -16 -49 -132zM238 745q0 19 14 33t33 14t33 -14t14 -33t-14 -33t-33 -14t-33 14t-14 33zM416 745q0 19 14 33t33 14t33 -14t14 -33t-14 -33t-33 -14t-33 14t-14 33z" />
    <glyph glyph-name="Aring" unicode="&#xc5;" horiz-adv-x="722" 
d="M448 248h-223l-42 -114q-18 -47 -18 -67q0 -44 65 -47v-20h-192v20q49 6 75.5 43.5t84.5 186.5l78 200q34 88 34 94q0 10 5 18l45 68q8 12 17 12q5 0 8.5 -3.5t7 -12t6.5 -19l9 -30t14 -39.5l150 -385q34 -86 53.5 -107t66.5 -26v-20h-249v20q39 4 53.5 12t14.5 24
q0 26 -16 68zM236 276h202l-86 221q-7 20 -14 44h-2q-5 -16 -49 -132zM281 752q0 38 27 65t65 27t65 -27t27 -65t-27 -65t-65 -27t-65 27t-27 65zM309 752q0 -26 19 -45t45 -19t45 19t19 45t-19 45t-45 19t-45 -19t-19 -45z" />
    <glyph glyph-name="AE" unicode="&#xc6;" horiz-adv-x="907" 
d="M367 0v20q53 8 68 24t15 66v188h-174q-42 -61 -79 -132t-37 -95q0 -37 72 -51v-20h-212v20q48 9 67.5 27t63.5 94l205 349q41 69 41 91q0 19 -20.5 26t-88.5 7v20h524l21 -114h-16q-28 35 -44 50.5t-47.5 27.5t-76.5 12h-54q-38 0 -48.5 -7t-10.5 -33v-218h71q63 0 80 15
t29 72h22v-218h-22q-8 59 -27.5 78t-72.5 19h-80v-252q0 -25 13.5 -33.5t50.5 -8.5h100q70 0 99.5 21.5t78.5 103.5h19q-6 -15 -34 -149h-496zM287 322h163v272h-2z" />
    <glyph glyph-name="Ccedilla" unicode="&#xc7;" horiz-adv-x="667" 
d="M600 440h-18q-10 31 -25 58.5t-41 57.5t-67 48t-93 18q-93 0 -158.5 -80.5t-65.5 -231.5q0 -132 69.5 -215t179.5 -83q74 0 131 45.5t88 119.5h20l-14 -100q-27 -33 -92 -59t-147 -26q-19 0 -28 1l-12 -51q25 -3 39.5 -6t30 -9.5t23 -19t7.5 -31.5q0 -27 -26.5 -46.5
t-72.5 -19.5q-52 0 -111 22l15 27q47 -25 84 -25q55 0 55 38q0 42 -58 42q-13 0 -23 -3l27 84q-134 15 -209.5 103t-75.5 203q0 146 91.5 243.5t242.5 97.5q57 0 130.5 -22.5t108.5 -55.5z" />
    <glyph glyph-name="Egrave" unicode="&#xc8;" horiz-adv-x="630" 
d="M32 0v20q61 0 77 16t17 74q4 260 4 414q0 57 -15.5 73.5t-72.5 16.5v20h482l21 -114h-16q-28 35 -44 50.5t-47.5 27.5t-76.5 12h-86q-38 0 -48.5 -7t-10.5 -33v-218h103q63 0 80 15t29 72h22v-218h-22q-8 59 -27.5 78t-72.5 19h-112v-252q0 -25 13.5 -33.5t50.5 -8.5h132
q70 0 99.5 21.5t78.5 103.5h19q-6 -15 -34 -149h-543zM386 670h-31l-112 94q-37 30 -41 41q-2 4 -2 8q0 25 33 25q16 0 25 -6.5t24 -25.5z" />
    <glyph glyph-name="Eacute" unicode="&#xc9;" horiz-adv-x="630" 
d="M32 0v20q61 0 77 16t17 74q4 260 4 414q0 57 -15.5 73.5t-72.5 16.5v20h482l21 -114h-16q-28 35 -44 50.5t-47.5 27.5t-76.5 12h-86q-38 0 -48.5 -7t-10.5 -33v-218h103q63 0 80 15t29 72h22v-218h-22q-8 59 -27.5 78t-72.5 19h-112v-252q0 -25 13.5 -33.5t50.5 -8.5h132
q70 0 99.5 21.5t78.5 103.5h19q-6 -15 -34 -149h-543zM281 670h-31l104 136q15 19 24 25.5t25 6.5q33 0 33 -25q0 -14 -38 -45q-3 -3 -5 -4z" />
    <glyph glyph-name="Ecircumflex" unicode="&#xca;" horiz-adv-x="630" 
d="M32 0v20q61 0 77 16t17 74q4 260 4 414q0 57 -15.5 73.5t-72.5 16.5v20h482l21 -114h-16q-28 35 -44 50.5t-47.5 27.5t-76.5 12h-86q-38 0 -48.5 -7t-10.5 -33v-218h103q63 0 80 15t29 72h22v-218h-22q-8 59 -27.5 78t-72.5 19h-112v-252q0 -25 13.5 -33.5t50.5 -8.5h132
q70 0 99.5 21.5t78.5 103.5h19q-6 -15 -34 -149h-543zM298 838h54l108 -168h-28l-107 107l-107 -107h-28z" />
    <glyph glyph-name="Edieresis" unicode="&#xcb;" horiz-adv-x="630" 
d="M32 0v20q61 0 77 16t17 74q4 260 4 414q0 57 -15.5 73.5t-72.5 16.5v20h482l21 -114h-16q-28 35 -44 50.5t-47.5 27.5t-76.5 12h-86q-38 0 -48.5 -7t-10.5 -33v-218h103q63 0 80 15t29 72h22v-218h-22q-8 59 -27.5 78t-72.5 19h-112v-252q0 -25 13.5 -33.5t50.5 -8.5h132
q70 0 99.5 21.5t78.5 103.5h19q-6 -15 -34 -149h-543zM192 745q0 19 14 33t33 14t33 -14t14 -33t-14 -33t-33 -14t-33 14t-14 33zM370 745q0 19 14 33t33 14t33 -14t14 -33t-14 -33t-33 -14t-33 14t-14 33z" />
    <glyph glyph-name="Igrave" unicode="&#xcc;" horiz-adv-x="352" 
d="M206 524v-414q0 -57 14 -73.5t62 -16.5v-20h-240v20q49 0 63.5 16.5t14.5 73.5v414q0 57 -14.5 73.5t-63.5 16.5v20h254v-20q-58 0 -74 -16.5t-16 -73.5zM235 670h-31l-112 94q-37 30 -41 41q-2 4 -2 8q0 25 33 25q16 0 25 -6.5t24 -25.5z" />
    <glyph glyph-name="Iacute" unicode="&#xcd;" horiz-adv-x="352" 
d="M206 524v-414q0 -57 14 -73.5t62 -16.5v-20h-240v20q49 0 63.5 16.5t14.5 73.5v414q0 57 -14.5 73.5t-63.5 16.5v20h254v-20q-58 0 -74 -16.5t-16 -73.5zM130 670h-31l104 136q15 19 24 25.5t25 6.5q33 0 33 -25q0 -14 -38 -45q-3 -3 -5 -4z" />
    <glyph glyph-name="Icircumflex" unicode="&#xce;" horiz-adv-x="352" 
d="M206 524v-414q0 -57 14 -73.5t62 -16.5v-20h-240v20q49 0 63.5 16.5t14.5 73.5v414q0 57 -14.5 73.5t-63.5 16.5v20h254v-20q-58 0 -74 -16.5t-16 -73.5zM147 838h54l108 -168h-28l-107 107l-107 -107h-28z" />
    <glyph glyph-name="Idieresis" unicode="&#xcf;" horiz-adv-x="352" 
d="M206 524v-414q0 -57 14 -73.5t62 -16.5v-20h-240v20q49 0 63.5 16.5t14.5 73.5v414q0 57 -14.5 73.5t-63.5 16.5v20h254v-20q-58 0 -74 -16.5t-16 -73.5zM41 745q0 19 13.5 33t33.5 14t33.5 -14t13.5 -33t-13.5 -33t-33.5 -14t-33.5 14t-13.5 33zM219 745q0 19 13.5 33
t33.5 14t33.5 -14t13.5 -33t-13.5 -33t-33.5 -14t-33.5 14t-13.5 33z" />
    <glyph glyph-name="Eth" unicode="&#xd0;" horiz-adv-x="759" 
d="M125 110v204h-99v34h99v176q0 57 -13.5 73.5t-58.5 16.5v20h261q50 0 102 -10t107 -35t98 -61t70.5 -93.5t27.5 -128.5q0 -141 -101.5 -223.5t-239.5 -82.5h-348v20q62 0 78.5 16t16.5 74zM211 314v-218q0 -39 25 -57.5t95 -18.5q133 0 210.5 75.5t77.5 208.5
q0 143 -84.5 226.5t-227.5 83.5q-58 0 -77 -17t-19 -73v-176h225v-34h-225z" />
    <glyph glyph-name="Ntilde" unicode="&#xd1;" horiz-adv-x="796" 
d="M45 0v20q36 4 52 12t25 35t9 82v373q0 52 -23 69.5t-79 22.5v20h158q43 -52 453 -496q5 197 5 385q0 45 -19 64.5t-74 26.5v20h215v-20q-53 -7 -72.5 -27t-19.5 -64q0 -71 -13 -523h-18q-25 39 -212.5 237.5t-267.5 300.5h-3v-389q0 -81 15 -102t72 -27v-20h-203z
M525 806h20q-4 -94 -84 -94q-25 0 -64 13q-41 13 -58 13t-26.5 -6.5t-12 -12.5t-5.5 -19h-20q5 90 80 90q21 0 54 -11t72 -11q31 0 44 38z" />
    <glyph glyph-name="Ograve" unicode="&#xd2;" horiz-adv-x="741" 
d="M370 642q148 0 239.5 -91t91.5 -234t-91.5 -234t-239.5 -91t-239.5 91t-91.5 234t91.5 234t239.5 91zM370 622q-120 0 -179.5 -79.5t-59.5 -225.5t59.5 -225.5t179.5 -79.5t179.5 79.5t59.5 225.5t-59.5 225.5t-179.5 79.5zM429 670h-31l-112 94q-37 30 -41 41q-2 4 -2 8
q0 25 33 25q16 0 25 -6.5t24 -25.5z" />
    <glyph glyph-name="Oacute" unicode="&#xd3;" horiz-adv-x="741" 
d="M370 642q148 0 239.5 -91t91.5 -234t-91.5 -234t-239.5 -91t-239.5 91t-91.5 234t91.5 234t239.5 91zM370 622q-120 0 -179.5 -79.5t-59.5 -225.5t59.5 -225.5t179.5 -79.5t179.5 79.5t59.5 225.5t-59.5 225.5t-179.5 79.5zM324 670h-31l104 136q15 19 24 25.5t25 6.5
q33 0 33 -25q0 -14 -38 -45q-3 -3 -5 -4z" />
    <glyph glyph-name="Ocircumflex" unicode="&#xd4;" horiz-adv-x="741" 
d="M370 642q148 0 239.5 -91t91.5 -234t-91.5 -234t-239.5 -91t-239.5 91t-91.5 234t91.5 234t239.5 91zM370 622q-120 0 -179.5 -79.5t-59.5 -225.5t59.5 -225.5t179.5 -79.5t179.5 79.5t59.5 225.5t-59.5 225.5t-179.5 79.5zM341 838h54l108 -168h-28l-107 107l-107 -107
h-28z" />
    <glyph glyph-name="Otilde" unicode="&#xd5;" horiz-adv-x="741" 
d="M370 642q148 0 239.5 -91t91.5 -234t-91.5 -234t-239.5 -91t-239.5 91t-91.5 234t91.5 234t239.5 91zM370 622q-120 0 -179.5 -79.5t-59.5 -225.5t59.5 -225.5t179.5 -79.5t179.5 79.5t59.5 225.5t-59.5 225.5t-179.5 79.5zM485 806h20q-4 -94 -84 -94q-25 0 -64 13
q-41 13 -58 13t-26.5 -6.5t-12 -12.5t-5.5 -19h-20q5 90 80 90q21 0 54 -11t72 -11q31 0 44 38z" />
    <glyph glyph-name="Odieresis" unicode="&#xd6;" horiz-adv-x="741" 
d="M370 642q148 0 239.5 -91t91.5 -234t-91.5 -234t-239.5 -91t-239.5 91t-91.5 234t91.5 234t239.5 91zM370 622q-120 0 -179.5 -79.5t-59.5 -225.5t59.5 -225.5t179.5 -79.5t179.5 79.5t59.5 225.5t-59.5 225.5t-179.5 79.5zM235 745q0 19 13.5 33t33.5 14t33.5 -14
t13.5 -33t-13.5 -33t-33.5 -14t-33.5 14t-13.5 33zM413 745q0 19 13.5 33t33.5 14t33.5 -14t13.5 -33t-13.5 -33t-33.5 -14t-33.5 14t-13.5 33z" />
    <glyph glyph-name="multiply" unicode="&#xd7;" horiz-adv-x="600" 
d="M269 193l-162 161l31 32l162 -162l162 162l31 -32l-162 -161l162 -161l-31 -32l-162 162l-162 -162l-31 32z" />
    <glyph glyph-name="Oslash" unicode="&#xd8;" horiz-adv-x="741" 
d="M225 57l255 542q-46 23 -110 23q-120 0 -179.5 -79.5t-59.5 -225.5q0 -187 94 -260zM511 580l-255 -543q50 -25 114 -25q120 0 179.5 79.5t59.5 225.5q0 192 -98 263zM548 743h40l-63 -134q82 -38 129 -115t47 -177q0 -143 -91.5 -234t-239.5 -91q-65 0 -126 21l-67 -142
h-40l74 156q-81 39 -126.5 115.5t-45.5 174.5q0 143 91.5 234t239.5 91q67 0 121 -19z" />
    <glyph glyph-name="Ugrave" unicode="&#xd9;" horiz-adv-x="741" 
d="M30 614v20h271v-20q-70 0 -88.5 -16t-18.5 -74v-316q0 -79 53.5 -127.5t146.5 -48.5q100 0 141 52.5t45 159.5l10 280q2 51 -21.5 70.5t-73.5 19.5v20h215v-20q-53 -6 -68 -33t-18 -121l-8 -234q-1 -49 -11.5 -86.5t-35 -73t-75 -55t-123.5 -19.5q-257 0 -257 218v314
q0 57 -15 73.5t-69 16.5zM429 670h-31l-112 94q-37 30 -41 41q-2 4 -2 8q0 25 33 25q16 0 25 -6.5t24 -25.5z" />
    <glyph glyph-name="Uacute" unicode="&#xda;" horiz-adv-x="741" 
d="M30 614v20h271v-20q-70 0 -88.5 -16t-18.5 -74v-316q0 -79 53.5 -127.5t146.5 -48.5q100 0 141 52.5t45 159.5l10 280q2 51 -21.5 70.5t-73.5 19.5v20h215v-20q-53 -6 -68 -33t-18 -121l-8 -234q-1 -49 -11.5 -86.5t-35 -73t-75 -55t-123.5 -19.5q-257 0 -257 218v314
q0 57 -15 73.5t-69 16.5zM324 670h-31l104 136q15 19 24 25.5t25 6.5q33 0 33 -25q0 -14 -38 -45q-3 -3 -5 -4z" />
    <glyph glyph-name="Ucircumflex" unicode="&#xdb;" horiz-adv-x="741" 
d="M30 614v20h271v-20q-70 0 -88.5 -16t-18.5 -74v-316q0 -79 53.5 -127.5t146.5 -48.5q100 0 141 52.5t45 159.5l10 280q2 51 -21.5 70.5t-73.5 19.5v20h215v-20q-53 -6 -68 -33t-18 -121l-8 -234q-1 -49 -11.5 -86.5t-35 -73t-75 -55t-123.5 -19.5q-257 0 -257 218v314
q0 57 -15 73.5t-69 16.5zM341 838h54l108 -168h-28l-107 107l-107 -107h-28z" />
    <glyph glyph-name="Udieresis" unicode="&#xdc;" horiz-adv-x="741" 
d="M30 614v20h271v-20q-70 0 -88.5 -16t-18.5 -74v-316q0 -79 53.5 -127.5t146.5 -48.5q100 0 141 52.5t45 159.5l10 280q2 51 -21.5 70.5t-73.5 19.5v20h215v-20q-53 -6 -68 -33t-18 -121l-8 -234q-1 -49 -11.5 -86.5t-35 -73t-75 -55t-123.5 -19.5q-257 0 -257 218v314
q0 57 -15 73.5t-69 16.5zM235 745q0 19 13.5 33t33.5 14t33.5 -14t13.5 -33t-13.5 -33t-33.5 -14t-33.5 14t-13.5 33zM413 745q0 19 13.5 33t33.5 14t33.5 -14t13.5 -33t-13.5 -33t-33.5 -14t-33.5 14t-13.5 33z" />
    <glyph glyph-name="Yacute" unicode="&#xdd;" horiz-adv-x="667" 
d="M29 634h243v-20q-62 0 -62 -30q0 -7 2 -14.5t8.5 -20l13.5 -25t20.5 -34.5l26 -42l35 -55l41.5 -67l57 87.5l43.5 65.5l28 43t18 34t4.5 25q0 18 -12 25.5t-41 7.5v20h183v-20q-28 -3 -50 -18t-55 -62l-165 -237v-187q0 -62 17 -75.5t85 -14.5v-20h-290v20q68 1 85 14.5
t17 75.5v188l-168 252q-24 36 -40 46.5t-45 17.5v20zM275 670h-31l104 136q15 19 24 25.5t25 6.5q33 0 33 -25q0 -14 -38 -45q-3 -3 -5 -4z" />
    <glyph glyph-name="Thorn" unicode="&#xde;" horiz-adv-x="574" 
d="M123 110v414q0 57 -14.5 73.5t-63.5 16.5v20h254v-20q-58 0 -74 -16.5t-16 -73.5v-20h100q42 0 80.5 -8.5t74.5 -26.5t57.5 -53t21.5 -82q0 -54 -24 -93t-67 -60.5t-94 -31.5t-113 -10v24q212 0 212 166q0 42 -16.5 73.5t-43 47t-53.5 23t-55 7.5q-50 0 -65 -16.5
t-15 -73.5v-280q0 -57 14 -73.5t62 -16.5v-20h-240v20q49 0 63.5 16.5t14.5 73.5z" />
    <glyph glyph-name="germandbls" unicode="&#xdf;" horiz-adv-x="500" 
d="M164 0h-136v16q44 0 57 16.5t13 73.5v395q0 175 154 175q73 0 121.5 -41.5t48.5 -105.5q0 -47 -33 -90.5t-107 -64.5v-2q181 -32 181 -188q0 -78 -46 -135t-125 -57q-35 0 -61 18l11 34q24 -28 54 -28q93 -3 93 153q0 83 -29.5 135t-87.5 52q-8 0 -24 -2v37q5 -1 14 -1
q33 0 63.5 30t30.5 94q0 66 -25.5 104t-75.5 38q-37 0 -64 -26t-27 -80v-550z" />
    <glyph glyph-name="agrave" unicode="&#xe0;" horiz-adv-x="426" 
d="M258 67v120l-40 -10q-59 -15 -86.5 -34.5t-27.5 -49.5q0 -29 17 -48t49 -19q35 0 88 41zM258 203v81q0 49 -17 67.5t-51 18.5q-31 0 -48 -16t-21 -35.5t-14.5 -35.5t-29.5 -16q-29 0 -29 27q0 29 56 64.5t111 35.5q113 0 113 -120v-219q0 -29 25 -29q18 0 35 15l10 -11
q-10 -16 -32.5 -27t-45.5 -11q-24 0 -42.5 16t-19.5 43q-64 -59 -131 -59q-42 0 -69.5 22.5t-27.5 55.5q0 48 38 71t136 48zM272 444h-31l-112 94q-37 30 -41 41q-2 4 -2 8q0 25 33 25q16 0 25 -6.5t24 -25.5z" />
    <glyph glyph-name="aacute" unicode="&#xe1;" horiz-adv-x="426" 
d="M258 67v120l-40 -10q-59 -15 -86.5 -34.5t-27.5 -49.5q0 -29 17 -48t49 -19q35 0 88 41zM258 203v81q0 49 -17 67.5t-51 18.5q-31 0 -48 -16t-21 -35.5t-14.5 -35.5t-29.5 -16q-29 0 -29 27q0 29 56 64.5t111 35.5q113 0 113 -120v-219q0 -29 25 -29q18 0 35 15l10 -11
q-10 -16 -32.5 -27t-45.5 -11q-24 0 -42.5 16t-19.5 43q-64 -59 -131 -59q-42 0 -69.5 22.5t-27.5 55.5q0 48 38 71t136 48zM167 444h-31l104 136q15 19 24 25.5t25 6.5q33 0 33 -25q0 -14 -38 -45q-3 -3 -5 -4z" />
    <glyph glyph-name="acircumflex" unicode="&#xe2;" horiz-adv-x="426" 
d="M258 67v120l-40 -10q-59 -15 -86.5 -34.5t-27.5 -49.5q0 -29 17 -48t49 -19q35 0 88 41zM258 203v81q0 49 -17 67.5t-51 18.5q-31 0 -48 -16t-21 -35.5t-14.5 -35.5t-29.5 -16q-29 0 -29 27q0 29 56 64.5t111 35.5q113 0 113 -120v-219q0 -29 25 -29q18 0 35 15l10 -11
q-10 -16 -32.5 -27t-45.5 -11q-24 0 -42.5 16t-19.5 43q-64 -59 -131 -59q-42 0 -69.5 22.5t-27.5 55.5q0 48 38 71t136 48zM184 612h54l108 -168h-28l-107 107l-107 -107h-28z" />
    <glyph glyph-name="atilde" unicode="&#xe3;" horiz-adv-x="426" 
d="M258 67v120l-40 -10q-59 -15 -86.5 -34.5t-27.5 -49.5q0 -29 17 -48t49 -19q35 0 88 41zM258 203v81q0 49 -17 67.5t-51 18.5q-31 0 -48 -16t-21 -35.5t-14.5 -35.5t-29.5 -16q-29 0 -29 27q0 29 56 64.5t111 35.5q113 0 113 -120v-219q0 -29 25 -29q18 0 35 15l10 -11
q-10 -16 -32.5 -27t-45.5 -11q-24 0 -42.5 16t-19.5 43q-64 -59 -131 -59q-42 0 -69.5 22.5t-27.5 55.5q0 48 38 71t136 48zM328 580h20q-4 -94 -84 -94q-25 0 -64 13q-41 13 -58 13t-26.5 -6.5t-12 -12.5t-5.5 -19h-20q5 90 80 90q21 0 54 -11t72 -11q31 0 44 38z" />
    <glyph glyph-name="adieresis" unicode="&#xe4;" horiz-adv-x="426" 
d="M258 67v120l-40 -10q-59 -15 -86.5 -34.5t-27.5 -49.5q0 -29 17 -48t49 -19q35 0 88 41zM258 203v81q0 49 -17 67.5t-51 18.5q-31 0 -48 -16t-21 -35.5t-14.5 -35.5t-29.5 -16q-29 0 -29 27q0 29 56 64.5t111 35.5q113 0 113 -120v-219q0 -29 25 -29q18 0 35 15l10 -11
q-10 -16 -32.5 -27t-45.5 -11q-24 0 -42.5 16t-19.5 43q-64 -59 -131 -59q-42 0 -69.5 22.5t-27.5 55.5q0 48 38 71t136 48zM78 519q0 19 14 33t33 14t33 -14t14 -33t-14 -33t-33 -14t-33 14t-14 33zM256 519q0 19 14 33t33 14t33 -14t14 -33t-14 -33t-33 -14t-33 14t-14 33
z" />
    <glyph glyph-name="aring" unicode="&#xe5;" horiz-adv-x="426" 
d="M258 67v120l-40 -10q-59 -15 -86.5 -34.5t-27.5 -49.5q0 -29 17 -48t49 -19q35 0 88 41zM258 203v81q0 49 -17 67.5t-51 18.5q-31 0 -48 -16t-21 -35.5t-14.5 -35.5t-29.5 -16q-29 0 -29 27q0 29 56 64.5t111 35.5q113 0 113 -120v-219q0 -29 25 -29q18 0 35 15l10 -11
q-10 -16 -32.5 -27t-45.5 -11q-24 0 -42.5 16t-19.5 43q-64 -59 -131 -59q-42 0 -69.5 22.5t-27.5 55.5q0 48 38 71t136 48zM121 526q0 38 27 65t65 27t65 -27t27 -65t-27 -65t-65 -27t-65 27t-27 65zM149 526q0 -26 19 -45t45 -19t45 19t19 45t-19 45t-45 19t-45 -19
t-19 -45z" />
    <glyph glyph-name="ae" unicode="&#xe6;" horiz-adv-x="593" 
d="M535 51l10 -14q-50 -45 -133 -45q-37 0 -66 11t-41 20.5t-31 28.5q-75 -60 -144 -60q-42 0 -64 23.5t-22 53.5q0 35 37 63t126 59l51 18v101q0 27 -17.5 45.5t-42.5 18.5q-27 0 -43 -15t-21.5 -32.5t-16.5 -32.5t-29 -15q-23 0 -23 22q0 31 45.5 62t97.5 31q54 0 106 -39
q1 0 7.5 5t8 6l8.5 5.5t10.5 6t11 5t13.5 5l14 3.5t16.5 2.5t18.5 0.5q61 0 94 -37t33 -62q0 -6 -15 -11q-27 -9 -97.5 -30t-108.5 -34v-57q0 -65 25.5 -101t88.5 -36q48 0 93 25zM258 86v92q-62 -9 -103 -33t-41 -60q0 -24 17 -41.5t43 -17.5q42 0 84 60zM328 277v-37
l77 23q49 15 61.5 23.5t12.5 26.5q0 61 -72 61q-38 0 -58.5 -25.5t-20.5 -71.5z" />
    <glyph glyph-name="ccedilla" unicode="&#xe7;" horiz-adv-x="389" 
d="M201 -7l-13 -51q25 -3 39.5 -6t30 -9.5t23 -19t7.5 -31.5q0 -27 -26.5 -46.5t-72.5 -19.5q-52 0 -111 22l15 27q47 -25 84 -25q55 0 55 38q0 42 -58 42q-12 0 -23 -3l26 84q-61 9 -104 56t-43 133q0 96 65.5 153t146.5 57q44 0 75 -15.5t31 -41.5q0 -13 -9 -20t-21 -7
q-20 0 -51 25t-60 25q-46 0 -76.5 -44t-30.5 -113q0 -80 43 -125.5t99 -45.5q28 0 54 13t41.5 25.5t17.5 12.5q7 0 7 -5q0 -17 -51 -51.5t-104 -34.5q-4 0 -6 1z" />
    <glyph glyph-name="egrave" unicode="&#xe8;" horiz-adv-x="407" 
d="M361 258h-256q-7 -26 -7 -59q0 -70 40 -118.5t107 -48.5q51 0 116 44l12 -16q-42 -34 -76 -51t-78 -17q-84 0 -137.5 59t-53.5 131q0 93 56.5 152.5t136.5 59.5q61 0 105.5 -41.5t44.5 -89.5q0 -5 -10 -5zM110 282h191q-3 41 -27.5 66.5t-62.5 25.5q-40 0 -66 -27
t-35 -65zM274 444h-31l-112 94q-37 30 -41 41q-2 4 -2 8q0 25 33 25q16 0 25 -6.5t24 -25.5z" />
    <glyph glyph-name="eacute" unicode="&#xe9;" horiz-adv-x="407" 
d="M361 258h-256q-7 -26 -7 -59q0 -70 40 -118.5t107 -48.5q51 0 116 44l12 -16q-42 -34 -76 -51t-78 -17q-84 0 -137.5 59t-53.5 131q0 93 56.5 152.5t136.5 59.5q61 0 105.5 -41.5t44.5 -89.5q0 -5 -10 -5zM110 282h191q-3 41 -27.5 66.5t-62.5 25.5q-40 0 -66 -27
t-35 -65zM169 444h-31l104 136q15 19 24 25.5t25 6.5q33 0 33 -25q0 -14 -38 -45q-3 -3 -5 -4z" />
    <glyph glyph-name="ecircumflex" unicode="&#xea;" horiz-adv-x="407" 
d="M361 258h-256q-7 -26 -7 -59q0 -70 40 -118.5t107 -48.5q51 0 116 44l12 -16q-42 -34 -76 -51t-78 -17q-84 0 -137.5 59t-53.5 131q0 93 56.5 152.5t136.5 59.5q61 0 105.5 -41.5t44.5 -89.5q0 -5 -10 -5zM110 282h191q-3 41 -27.5 66.5t-62.5 25.5q-40 0 -66 -27
t-35 -65zM186 612h54l108 -168h-28l-107 107l-107 -107h-28z" />
    <glyph glyph-name="edieresis" unicode="&#xeb;" horiz-adv-x="407" 
d="M361 258h-256q-7 -26 -7 -59q0 -70 40 -118.5t107 -48.5q51 0 116 44l12 -16q-42 -34 -76 -51t-78 -17q-84 0 -137.5 59t-53.5 131q0 93 56.5 152.5t136.5 59.5q61 0 105.5 -41.5t44.5 -89.5q0 -5 -10 -5zM110 282h191q-3 41 -27.5 66.5t-62.5 25.5q-40 0 -66 -27
t-35 -65zM80 519q0 19 14 33t33 14t33 -14t14 -33t-14 -33t-33 -14t-33 14t-14 33zM258 519q0 19 14 33t33 14t33 -14t14 -33t-14 -33t-33 -14t-33 14t-14 33z" />
    <glyph glyph-name="igrave" unicode="&#xec;" horiz-adv-x="259" 
d="M36 0v16q35 0 46.5 16.5t11.5 71.5v137q0 53 -6 68.5t-27 18.5t-21 13q0 11 14 17q6 2 30 11.5l44 17t25 7.5q12 0 12 -11q0 -2 -0.5 -29t-0.5 -46v-204q0 -55 11.5 -71.5t47.5 -16.5v-16h-187zM188 444h-31l-112 94q-37 30 -41 41q-2 4 -2 8q0 25 33 25q16 0 25 -6.5
t24 -25.5z" />
    <glyph glyph-name="iacute" unicode="&#xed;" horiz-adv-x="259" 
d="M36 0v16q35 0 46.5 16.5t11.5 71.5v137q0 53 -6 68.5t-27 18.5t-21 13q0 11 14 17q6 2 30 11.5l44 17t25 7.5q12 0 12 -11q0 -2 -0.5 -29t-0.5 -46v-204q0 -55 11.5 -71.5t47.5 -16.5v-16h-187zM83 444h-31l104 136q15 19 24 25.5t25 6.5q33 0 33 -25q0 -14 -38 -45
q-3 -3 -5 -4z" />
    <glyph glyph-name="icircumflex" unicode="&#xee;" horiz-adv-x="259" 
d="M36 0v16q35 0 46.5 16.5t11.5 71.5v137q0 53 -6 68.5t-27 18.5t-21 13q0 11 14 17q6 2 30 11.5l44 17t25 7.5q12 0 12 -11q0 -2 -0.5 -29t-0.5 -46v-204q0 -55 11.5 -71.5t47.5 -16.5v-16h-187zM100 612h54l108 -168h-28l-107 107l-107 -107h-28z" />
    <glyph glyph-name="idieresis" unicode="&#xef;" horiz-adv-x="259" 
d="M36 0v16q35 0 46.5 16.5t11.5 71.5v137q0 53 -6 68.5t-27 18.5t-21 13q0 11 14 17q6 2 30 11.5l44 17t25 7.5q12 0 12 -11q0 -2 -0.5 -29t-0.5 -46v-204q0 -55 11.5 -71.5t47.5 -16.5v-16h-187zM-6 519q0 19 14 33t33 14t33 -14t14 -33t-14 -33t-33 -14t-33 14t-14 33z
M172 519q0 19 14 33t33 14t33 -14t14 -33t-14 -33t-33 -14t-33 14t-14 33z" />
    <glyph glyph-name="eth" unicode="&#xf0;" horiz-adv-x="463" 
d="M234 374q-56 0 -91.5 -46t-35.5 -134q0 -182 119 -182q56 0 91.5 46t35.5 134q0 182 -119 182zM278 513l-114 -67l-18 22l115 68q-55 66 -157 86l4 20q112 -10 192 -83l112 66l18 -22l-109 -65q55 -58 83.5 -139t28.5 -167q0 -119 -63 -179.5t-143 -60.5t-140 55t-60 144
q0 94 64 148.5t142 54.5q63 0 114 -37q-22 92 -69 156z" />
    <glyph glyph-name="ntilde" unicode="&#xf1;" horiz-adv-x="519" 
d="M25 0v16q41 0 53.5 17t12.5 73v187q0 16 -4.5 22.5t-19.5 16.5q-12 8 -12 13q0 8 17 17q62 38 74 38q11 0 11 -12v-41q71 47 133 47q25 0 46.5 -5.5t43.5 -19.5t34.5 -43t12.5 -71v-149q0 -56 11.5 -73t47.5 -17v-16h-188v16q36 0 47.5 17t11.5 73v132q0 122 -104 122
q-50 0 -92 -50v-204q0 -56 12 -73t49 -17v-16h-197zM374 580h20q-4 -94 -84 -94q-25 0 -64 13q-41 13 -58 13t-26.5 -6.5t-12 -12.5t-5.5 -19h-20q5 90 80 90q21 0 54 -11t72 -11q31 0 44 38z" />
    <glyph glyph-name="ograve" unicode="&#xf2;" horiz-adv-x="463" 
d="M231 394q82 0 142.5 -55t60.5 -146t-60.5 -146t-142.5 -55t-142.5 55t-60.5 146t60.5 146t142.5 55zM231 374q-123 0 -123 -181t123 -181t123 181t-123 181zM290 444h-31l-112 94q-37 30 -41 41q-2 4 -2 8q0 25 33 25q16 0 25 -6.5t24 -25.5z" />
    <glyph glyph-name="oacute" unicode="&#xf3;" horiz-adv-x="463" 
d="M231 394q82 0 142.5 -55t60.5 -146t-60.5 -146t-142.5 -55t-142.5 55t-60.5 146t60.5 146t142.5 55zM231 374q-123 0 -123 -181t123 -181t123 181t-123 181zM185 444h-31l104 136q15 19 24 25.5t25 6.5q33 0 33 -25q0 -14 -38 -45q-3 -3 -5 -4z" />
    <glyph glyph-name="ocircumflex" unicode="&#xf4;" horiz-adv-x="463" 
d="M231 394q82 0 142.5 -55t60.5 -146t-60.5 -146t-142.5 -55t-142.5 55t-60.5 146t60.5 146t142.5 55zM231 374q-123 0 -123 -181t123 -181t123 181t-123 181zM202 612h54l108 -168h-28l-107 107l-107 -107h-28z" />
    <glyph glyph-name="otilde" unicode="&#xf5;" horiz-adv-x="463" 
d="M231 394q82 0 142.5 -55t60.5 -146t-60.5 -146t-142.5 -55t-142.5 55t-60.5 146t60.5 146t142.5 55zM231 374q-123 0 -123 -181t123 -181t123 181t-123 181zM346 580h20q-4 -94 -84 -94q-25 0 -64 13q-41 13 -58 13t-26.5 -6.5t-12 -12.5t-5.5 -19h-20q5 90 80 90
q21 0 54 -11t72 -11q31 0 44 38z" />
    <glyph glyph-name="odieresis" unicode="&#xf6;" horiz-adv-x="463" 
d="M231 394q82 0 142.5 -55t60.5 -146t-60.5 -146t-142.5 -55t-142.5 55t-60.5 146t60.5 146t142.5 55zM231 374q-123 0 -123 -181t123 -181t123 181t-123 181zM96 519q0 19 14 33t33 14t33 -14t14 -33t-14 -33t-33 -14t-33 14t-14 33zM274 519q0 19 14 33t33 14t33 -14
t14 -33t-14 -33t-33 -14t-33 14t-14 33z" />
    <glyph glyph-name="divide" unicode="&#xf7;" horiz-adv-x="600" 
d="M493 171h-386v44h386v-44zM254 351q0 19 13.5 32.5t32.5 13.5t32.5 -13.5t13.5 -32.5t-13.5 -32.5t-32.5 -13.5t-32.5 13.5t-13.5 32.5zM254 35q0 19 13.5 32.5t32.5 13.5t32.5 -13.5t13.5 -32.5t-13.5 -32.5t-32.5 -13.5t-32.5 13.5t-13.5 32.5z" />
    <glyph glyph-name="oslash" unicode="&#xf8;" horiz-adv-x="463" 
d="M145 50l153 304q-28 20 -67 20q-123 0 -123 -181q0 -98 37 -143zM321 331l-152 -302q25 -17 62 -17q123 0 123 181q0 94 -33 138zM157 5l-46 -90h-34l52 103q-46 24 -73.5 69.5t-27.5 105.5q0 91 60.5 146t142.5 55q41 0 79 -15l45 89h34l-51 -103q96 -57 96 -172
q0 -91 -60.5 -146t-142.5 -55q-39 0 -74 13z" />
    <glyph glyph-name="ugrave" unicode="&#xf9;" horiz-adv-x="519" 
d="M30 386l128 8v-266q0 -50 24.5 -76t63.5 -26q34 0 68.5 21t41.5 44v163q0 70 -11.5 89.5t-52.5 26.5v16l134 8v-304q0 -47 25 -47q10 0 37 8v-23l-126 -32v61q-21 -20 -35.5 -31t-46.5 -22.5t-70 -11.5q-72 0 -97 36t-25 98v99q0 64 -5 92t-15.5 38t-37.5 15v16zM318 444
h-31l-112 94q-37 30 -41 41q-2 4 -2 8q0 25 33 25q16 0 25 -6.5t24 -25.5z" />
    <glyph glyph-name="uacute" unicode="&#xfa;" horiz-adv-x="519" 
d="M30 386l128 8v-266q0 -50 24.5 -76t63.5 -26q34 0 68.5 21t41.5 44v163q0 70 -11.5 89.5t-52.5 26.5v16l134 8v-304q0 -47 25 -47q10 0 37 8v-23l-126 -32v61q-21 -20 -35.5 -31t-46.5 -22.5t-70 -11.5q-72 0 -97 36t-25 98v99q0 64 -5 92t-15.5 38t-37.5 15v16zM213 444
h-31l104 136q15 19 24 25.5t25 6.5q33 0 33 -25q0 -14 -38 -45q-3 -3 -5 -4z" />
    <glyph glyph-name="ucircumflex" unicode="&#xfb;" horiz-adv-x="519" 
d="M30 386l128 8v-266q0 -50 24.5 -76t63.5 -26q34 0 68.5 21t41.5 44v163q0 70 -11.5 89.5t-52.5 26.5v16l134 8v-304q0 -47 25 -47q10 0 37 8v-23l-126 -32v61q-21 -20 -35.5 -31t-46.5 -22.5t-70 -11.5q-72 0 -97 36t-25 98v99q0 64 -5 92t-15.5 38t-37.5 15v16zM230 612
h54l108 -168h-28l-107 107l-107 -107h-28z" />
    <glyph glyph-name="udieresis" unicode="&#xfc;" horiz-adv-x="519" 
d="M30 386l128 8v-266q0 -50 24.5 -76t63.5 -26q34 0 68.5 21t41.5 44v163q0 70 -11.5 89.5t-52.5 26.5v16l134 8v-304q0 -47 25 -47q10 0 37 8v-23l-126 -32v61q-21 -20 -35.5 -31t-46.5 -22.5t-70 -11.5q-72 0 -97 36t-25 98v99q0 64 -5 92t-15.5 38t-37.5 15v16zM124 519
q0 19 14 33t33 14t33 -14t14 -33t-14 -33t-33 -14t-33 14t-14 33zM302 519q0 19 14 33t33 14t33 -14t14 -33t-14 -33t-33 -14t-33 14t-14 33z" />
    <glyph glyph-name="yacute" unicode="&#xfd;" 
d="M18 386h181v-16q-27 -1 -38 -9.5t-11 -26.5q0 -15 17.5 -58l41.5 -103t35 -102h2q10 33 32.5 99t35 107t12.5 54q0 19 -11 27t-33 12v16h124v-16q-19 -8 -29.5 -23t-27.5 -61l-146 -394q-21 -58 -46 -93t-61 -35q-19 0 -29.5 10.5t-10.5 24.5q0 18 15 28t54 18
q23 5 32 15t24 51q24 66 24 75q0 5 -7 21l-127 311q-10 24 -20.5 35t-32.5 17v16zM176 444h-31l104 136q15 19 24 25.5t25 6.5q33 0 33 -25q0 -14 -38 -45q-3 -3 -5 -4z" />
    <glyph glyph-name="thorn" unicode="&#xfe;" horiz-adv-x="500" 
d="M91 -167v697q0 21 -6.5 33.5t-14 15.5t-14 7t-6.5 9q0 1 0.5 2.5t1.5 3t2.5 2.5t4 2t4.5 2l5 2.5t5.5 2.5t7 2.5l7.5 2.5q4 2 19 9t27 11.5t17 4.5q10 0 10 -12v-294q21 19 35.5 29t41 19.5t57.5 9.5q28 0 55.5 -9t55.5 -29.5t45 -60.5t17 -95q0 -88 -52 -148t-156 -60
q-52 0 -99 22v-181q0 -28 12 -36.5t64 -16.5v-16h-206v16q43 9 51.5 16.5t8.5 36.5zM161 316v-130q0 -97 21.5 -135.5t87.5 -38.5q65 0 96.5 46.5t31.5 114.5q0 94 -41 142.5t-96 48.5q-44 0 -100 -48z" />
    <glyph glyph-name="ydieresis" unicode="&#xff;" 
d="M18 386h181v-16q-27 -1 -38 -9.5t-11 -26.5q0 -15 17.5 -58l41.5 -103t35 -102h2q10 33 32.5 99t35 107t12.5 54q0 19 -11 27t-33 12v16h124v-16q-19 -8 -29.5 -23t-27.5 -61l-146 -394q-21 -58 -46 -93t-61 -35q-19 0 -29.5 10.5t-10.5 24.5q0 18 15 28t54 18
q23 5 32 15t24 51q24 66 24 75q0 5 -7 21l-127 311q-10 24 -20.5 35t-32.5 17v16zM87 519q0 19 13.5 33t33.5 14t33.5 -14t13.5 -33t-13.5 -33t-33.5 -14t-33.5 14t-13.5 33zM265 519q0 19 13.5 33t33.5 14t33.5 -14t13.5 -33t-13.5 -33t-33.5 -14t-33.5 14t-13.5 33z" />
    <glyph glyph-name="dotlessi" unicode="&#x131;" horiz-adv-x="259" 
d="M36 0v16q35 0 46.5 16.5t11.5 71.5v137q0 53 -6 68.5t-27 18.5t-21 13q0 11 14 17q6 2 30 11.5l44 17t25 7.5q12 0 12 -11q0 -2 -0.5 -29t-0.5 -46v-204q0 -55 11.5 -71.5t47.5 -16.5v-16h-187z" />
    <glyph glyph-name="Lslash" unicode="&#x141;" horiz-adv-x="630" 
d="M10 238v40l119 48v198q0 57 -15 73.5t-68 16.5v20h267v-20q-64 0 -81 -16t-17 -74v-163l211 85v-40l-211 -85v-211q0 -58 10.5 -72t54.5 -14h78q158 0 229 130h23l-32 -160q-68 4 -101 5t-97 1h-350v20q65 0 82 16t17 74v176z" />
    <glyph glyph-name="lslash" unicode="&#x142;" horiz-adv-x="259" 
d="M156 368v-262q0 -56 12 -73t50 -17v-16h-190v16q35 0 46.5 17t11.5 73v226l-103 -52v34l103 52v173q0 38 -6 49.5t-33 24.5q-14 8 -14 15q0 9 13 13q4 1 29 11t45.5 17t24.5 7q11 0 11 -19v-255l103 53v-34z" />
    <glyph glyph-name="OE" unicode="&#x152;" horiz-adv-x="1000" 
d="M614 318v-252q0 -25 13.5 -33.5t50.5 -8.5h112q70 0 99.5 21.5t78.5 103.5h19q-6 -15 -34 -149h-465q-26 0 -70 -4q-42 -4 -67 -4q-77 0 -138.5 27.5t-98.5 73t-56.5 100t-19.5 112.5q0 150 89 243.5t241 93.5q28 0 80 -4q50 -4 84 -4h370l21 -114h-16q-28 35 -44 50.5
t-47.5 27.5t-76.5 12h-66q-38 0 -48.5 -7t-10.5 -33v-218h83q63 0 80 15t29 72h22v-218h-22q-8 59 -27.5 78t-72.5 19h-92zM528 143v348q0 68 -39.5 99.5t-121.5 31.5q-65 0 -112.5 -25t-74 -69.5t-38.5 -97t-12 -116.5q0 -50 4.5 -88.5t19 -80.5t39.5 -69.5t69 -45.5
t105 -18q82 0 121.5 31.5t39.5 99.5z" />
    <glyph glyph-name="oe" unicode="&#x153;" horiz-adv-x="685" 
d="M650 231h-246q-2 -18 -2 -59q1 -69 33 -107.5t88 -38.5q60 0 118 50l8 -11q-58 -73 -149 -73q-37 0 -66 13t-43.5 26t-17.5 13q-2 0 -20 -13t-51.5 -26t-74.5 -13q-85 0 -140 57.5t-55 140.5q0 87 56.5 145.5t150.5 58.5q41 0 88 -22l47 -22l45 22q45 22 81 22
q44 0 75 -14.5t46.5 -40t22 -52t6.5 -56.5zM342 195q0 92 -24.5 135.5t-84.5 43.5q-51 0 -86 -47t-35 -125q0 -88 33.5 -139t87.5 -51q58 0 83.5 51.5t25.5 131.5zM407 255h183q0 61 -18.5 90t-68.5 29q-94 0 -96 -119z" />
    <glyph glyph-name="Scaron" unicode="&#x160;" horiz-adv-x="500" 
d="M414 612v-133h-16q-47 143 -149 143q-43 0 -81 -29t-38 -79q0 -46 34 -79t82 -54.5l96.5 -44.5t82.5 -62t34 -94q0 -69 -60 -128.5t-166 -59.5q-40 0 -96 9t-70 22q-6 5 -10 20t-7 36t-4.5 39t-2.5 39t-2 27h15q63 -172 185 -172q57 0 100.5 33.5t43.5 94.5q0 36 -18 64
t-47 45t-64.5 32t-70.5 31.5t-64 36.5t-47 52t-18 75q0 68 52.5 117t156.5 49q90 0 149 -30zM277 670h-54l-108 168h28l107 -109l107 109h28z" />
    <glyph glyph-name="scaron" unicode="&#x161;" horiz-adv-x="333" 
d="M265 373l2 -66q0 -8 -6 -8t-10 6q-37 69 -85 69q-24 0 -39 -15t-15 -43q0 -33 28.5 -56.5t62.5 -36.5t62.5 -41.5t28.5 -69.5t-38.5 -80.5t-102.5 -39.5q-40 0 -77.5 18.5t-37.5 33.5q0 3 5 26t5 28q0 10 11 10q4 0 13 -24t30.5 -48t56.5 -24q26 0 47.5 18.5t21.5 52.5
q0 27 -18.5 48.5t-45.5 35.5l-54 29t-45.5 38t-18.5 53q0 43 36.5 75t98.5 32q38 0 77 -13q7 -2 7 -8zM193 444h-54l-108 168h28l107 -109l107 109h28z" />
    <glyph glyph-name="Ydieresis" unicode="&#x178;" horiz-adv-x="667" 
d="M29 634h243v-20q-62 0 -62 -30q0 -7 2 -14.5t8.5 -20l13.5 -25t20.5 -34.5l26 -42l35 -55l41.5 -67l57 87.5l43.5 65.5l28 43t18 34t4.5 25q0 18 -12 25.5t-41 7.5v20h183v-20q-28 -3 -50 -18t-55 -62l-165 -237v-187q0 -62 17 -75.5t85 -14.5v-20h-290v20q68 1 85 14.5
t17 75.5v188l-168 252q-24 36 -40 46.5t-45 17.5v20zM186 745q0 19 14 33t33 14t33 -14t14 -33t-14 -33t-33 -14t-33 14t-14 33zM364 745q0 19 14 33t33 14t33 -14t14 -33t-14 -33t-33 -14t-33 14t-14 33z" />
    <glyph glyph-name="Zcaron" unicode="&#x17d;" horiz-adv-x="630" 
d="M66 466h-23l30 190h21q11 -22 79 -22h409q-280 -394 -417 -606q92 -4 138 -4q59 0 95 4.5t71.5 20t60 46t46.5 81.5h26l-29 -176h-533l419 610h-188q-79 0 -124 -28.5t-81 -115.5zM330 670h-54l-108 168h28l107 -109l107 109h28z" />
    <glyph glyph-name="zcaron" unicode="&#x17e;" horiz-adv-x="463" 
d="M140 24h132q40 0 68 14t42 31.5t35 52.5h16l-30 -122h-359l2 13l270 349h-115q-89 0 -138 -92h-18l34 116h331zM258 444h-54l-108 168h28l107 -109l107 109h28z" />
    <glyph glyph-name="florin" unicode="&#x192;" 
d="M361 388l-6 -34h-88l-35 -298q-11 -94 -53.5 -151t-120.5 -57q-25 0 -41 12t-16 29q0 14 9.5 21.5t22.5 7.5q15 0 38.5 -15t39.5 -15q22 0 34.5 31.5t23.5 128.5l33 306h-86l4 34h86l5 43q13 110 53.5 160.5t117.5 50.5q25 0 42 -10.5t17 -29.5q0 -31 -32 -31
q-16 0 -38 15.5t-36 15.5q-17 0 -28 -14t-14.5 -30.5t-7.5 -47.5l-14 -122h90z" />
    <glyph glyph-name="circumflex" unicode="&#x2c6;" horiz-adv-x="259" 
d="M100 612h54l108 -168h-28l-107 107l-107 -107h-28z" />
    <glyph glyph-name="caron" unicode="&#x2c7;" horiz-adv-x="259" 
d="M156 444h-54l-108 168h28l107 -109l107 109h28z" />
    <glyph glyph-name="breve" unicode="&#x2d8;" horiz-adv-x="259" 
d="M-6 596h20q5 -16 8.5 -24t14 -21.5t32 -20t52.5 -6.5q45 0 72 11.5t34.5 23.5t16.5 35h20q0 -17 -6 -37t-20 -43.5t-44 -38.5t-71 -15q-47 0 -87 33.5t-42 102.5z" />
    <glyph glyph-name="dotaccent" unicode="&#x2d9;" horiz-adv-x="259" 
d="M82 519q0 19 14 33t33 14t33 -14t14 -33t-14 -33t-33 -14t-33 14t-14 33z" />
    <glyph glyph-name="ring" unicode="&#x2da;" horiz-adv-x="259" 
d="M37 526q0 38 27 65t65 27t65 -27t27 -65t-27 -65t-65 -27t-65 27t-27 65zM65 526q0 -26 19 -45t45 -19t45 19t19 45t-19 45t-45 19t-45 -19t-19 -45z" />
    <glyph glyph-name="ogonek" unicode="&#x2db;" horiz-adv-x="259" 
d="M258 20v-10q-35 -13 -52.5 -20.5t-50.5 -25.5t-49.5 -39.5t-16.5 -46.5q0 -22 19.5 -33t51.5 -11q24 0 54 12.5t48 27.5l10 -24q-2 -1 -10 -6t-10 -6t-10 -5.5t-11 -5.5t-11 -4.5t-13 -4.5t-13 -3t-15.5 -3t-17 -1.5t-19.5 -0.5q-54 0 -81.5 15t-27.5 55q0 90 225 140z
" />
    <glyph glyph-name="tilde" unicode="&#x2dc;" horiz-adv-x="259" 
d="M244 580h20q-4 -94 -84 -94q-25 0 -64 13q-41 13 -58 13t-26.5 -6.5t-12 -12.5t-5.5 -19h-20q5 90 80 90q21 0 54 -11t72 -11q31 0 44 38z" />
    <glyph glyph-name="hungarumlaut" unicode="&#x2dd;" horiz-adv-x="259" 
d="M7 444h-31l104 136q15 19 24 25.5t25 6.5q33 0 33 -25q0 -14 -38 -45q-3 -3 -5 -4zM147 444h-31l104 136q15 19 24 25.5t25 6.5q33 0 33 -25q0 -14 -38 -45q-3 -3 -5 -4z" />
    <glyph glyph-name="endash" unicode="&#x2013;" horiz-adv-x="500" 
d="M0 173v40h500v-40h-500z" />
    <glyph glyph-name="emdash" unicode="&#x2014;" horiz-adv-x="1000" 
d="M0 173v40h1000v-40h-1000z" />
    <glyph glyph-name="quoteleft" unicode="&#x2018;" horiz-adv-x="222" 
d="M167 668v-16q-29 -17 -50 -42t-21 -44q0 -17 6.5 -22.5t22.5 -10.5q32 -11 39 -24q6 -10 6 -24q0 -43 -51 -43q-33 0 -50 25.5t-17 64.5q0 45 33.5 81.5t81.5 54.5z" />
    <glyph glyph-name="quoteright" unicode="&#x2019;" horiz-adv-x="222" 
d="M55 432v16q29 17 50 42t21 44q0 17 -6.5 22.5t-22.5 10.5q-32 11 -39 24q-6 10 -6 24q0 43 51 43q33 0 50 -25.5t17 -64.5q0 -45 -33.5 -81.5t-81.5 -54.5z" />
    <glyph glyph-name="quotesinglbase" unicode="&#x201a;" horiz-adv-x="222" 
d="M55 -134v16q29 17 50 42t21 44q0 17 -6.5 22.5t-22.5 10.5q-32 11 -39 24q-6 10 -6 24q0 43 51 43q33 0 50 -25.5t17 -64.5q0 -45 -33.5 -81.5t-81.5 -54.5z" />
    <glyph glyph-name="quotedblleft" unicode="&#x201c;" horiz-adv-x="407" 
d="M352 668v-16q-29 -17 -50 -42t-21 -44q0 -17 6.5 -22.5t22.5 -10.5q32 -11 39 -24q6 -10 6 -24q0 -43 -51 -43q-33 0 -50 25.5t-17 64.5q0 45 33.5 81.5t81.5 54.5zM167 668v-16q-29 -17 -50 -42t-21 -44q0 -17 6.5 -22.5t22.5 -10.5q32 -11 39 -24q6 -10 6 -24
q0 -43 -51 -43q-33 0 -50 25.5t-17 64.5q0 45 33.5 81.5t81.5 54.5z" />
    <glyph glyph-name="quotedblright" unicode="&#x201d;" horiz-adv-x="407" 
d="M55 432v16q29 17 50 42t21 44q0 17 -6.5 22.5t-22.5 10.5q-32 11 -39 24q-6 10 -6 24q0 43 51 43q33 0 50 -25.5t17 -64.5q0 -45 -33.5 -81.5t-81.5 -54.5zM240 432v16q29 17 50 42t21 44q0 17 -6.5 22.5t-22.5 10.5q-32 11 -39 24q-6 10 -6 24q0 43 51 43q33 0 50 -25.5
t17 -64.5q0 -45 -33.5 -81.5t-81.5 -54.5z" />
    <glyph glyph-name="quotedblbase" unicode="&#x201e;" horiz-adv-x="407" 
d="M55 -134v16q29 17 50 42t21 44q0 17 -6.5 22.5t-22.5 10.5q-32 11 -39 24q-6 10 -6 24q0 43 51 43q33 0 50 -25.5t17 -64.5q0 -45 -33.5 -81.5t-81.5 -54.5zM240 -134v16q29 17 50 42t21 44q0 17 -6.5 22.5t-22.5 10.5q-32 11 -39 24q-6 10 -6 24q0 43 51 43
q33 0 50 -25.5t17 -64.5q0 -45 -33.5 -81.5t-81.5 -54.5z" />
    <glyph glyph-name="dagger" unicode="&#x2020;" horiz-adv-x="500" 
d="M258 -182h-16q0 315 -32 401q17 41 23.5 68t6.5 71v50q-51 -4 -91 -17.5t-52 -13.5q-19 0 -30 11t-11 25q0 38 41 38q17 0 54 -13t89 -14v51q0 31 -16 69t-16 56q0 19 11.5 30.5t31.5 11.5q19 0 30 -11.5t11 -30.5q0 -18 -16 -56t-16 -69v-51q52 1 89 14t54 13
q41 0 41 -38q0 -14 -11 -25t-30 -11q-12 0 -52 13.5t-91 17.5v-50q0 -44 6.5 -71t23.5 -68q-32 -86 -32 -401z" />
    <glyph glyph-name="daggerdbl" unicode="&#x2021;" horiz-adv-x="500" 
d="M261 475v-51q52 1 89 14t54 13q41 0 41 -38q0 -14 -11 -25t-30 -11q-12 0 -52 13.5t-91 17.5q2 -109 26 -183q-22 -54 -26 -173q51 4 91 17.5t52 13.5q19 0 30 -11t11 -25q0 -38 -41 -38q-17 0 -54 13t-89 14v-51q0 -31 16 -69t16 -56q0 -19 -11.5 -30.5t-31.5 -11.5
t-31.5 11.5t-11.5 30.5q0 18 16 56t16 69v51q-52 -1 -89 -14t-54 -13q-41 0 -41 38q0 14 11 25t30 11q12 0 52 -13.5t91 -17.5q-4 119 -26 173q24 74 26 183q-51 -4 -91 -17.5t-52 -13.5q-19 0 -30 11t-11 25q0 38 41 38q17 0 54 -13t89 -14v51q0 31 -16 69t-16 56
q0 19 11.5 30.5t31.5 11.5t31.5 -11.5t11.5 -30.5q0 -18 -16 -56t-16 -69z" />
    <glyph glyph-name="bullet" unicode="&#x2022;" horiz-adv-x="500" 
d="M91 318q0 66 46.5 112.5t112.5 46.5t112.5 -46.5t46.5 -112.5t-46.5 -112.5t-112.5 -46.5t-112.5 46.5t-46.5 112.5z" />
    <glyph glyph-name="ellipsis" unicode="&#x2026;" horiz-adv-x="1000" 
d="M113 45q0 22 15.5 37.5t37.5 15.5t37.5 -15.5t15.5 -37.5t-15.5 -37.5t-37.5 -15.5t-37.5 15.5t-15.5 37.5zM447 45q0 22 15.5 37.5t37.5 15.5t37.5 -15.5t15.5 -37.5t-15.5 -37.5t-37.5 -15.5t-37.5 15.5t-15.5 37.5zM781 45q0 22 15.5 37.5t37.5 15.5t37.5 -15.5
t15.5 -37.5t-15.5 -37.5t-37.5 -15.5t-37.5 15.5t-15.5 37.5z" />
    <glyph glyph-name="perthousand" unicode="&#x2030;" horiz-adv-x="1000" 
d="M904 297q-59 0 -115 -72t-56 -133q0 -38 20.5 -57t55.5 -19q43 0 82.5 39t60.5 85.5t21 79.5q0 34 -18.5 55.5t-50.5 21.5zM522 323q51 0 80 -27t29 -77q0 -26 -13.5 -63t-37.5 -74.5t-63 -63.5t-83 -26q-48 0 -81.5 35t-33.5 89q0 67 57 137t146 70zM554 676h32
l-499 -684h-43l433 593l-2 2q-53 -21 -92 -21q-35 0 -71 11q2 -6 2 -23q0 -42 -25 -94.5t-71 -92.5t-96 -40t-83 33t-33 91q0 30 14 65t38.5 67t64.5 53.5t87 21.5q70 0 98 -59q30 -17 69 -17q102 0 177 94zM888 323q51 0 80 -27t29 -77q0 -26 -13.5 -63t-37.5 -74.5
t-63 -63.5t-83 -26q-48 0 -81.5 35t-33.5 89q0 67 57 137t146 70zM538 299q-59 0 -115 -72t-56 -133q0 -38 20.5 -57t55.5 -19q43 0 82.5 39t60.5 85.5t21 79.5q0 34 -18.5 55.5t-50.5 21.5zM222 634q-57 0 -112.5 -72.5t-55.5 -133.5q0 -39 20 -58t53 -19q64 0 113.5 73.5
t49.5 129.5q0 20 -5 32q-11 6 -29 21.5t-23 24.5q-8 2 -11 2z" />
    <glyph glyph-name="guilsinglleft" unicode="&#x2039;" horiz-adv-x="333" 
d="M80 193v2q105 88 148 137q9 10 18 10q7 0 7 -8q0 -10 -49.5 -73t-49.5 -67t49.5 -67.5t49.5 -74.5q0 -8 -8 -8q-5 0 -26.5 21l-61.5 59.5t-77 68.5z" />
    <glyph glyph-name="guilsinglright" unicode="&#x203a;" horiz-adv-x="333" 
d="M253 193v-2q-105 -88 -148 -137q-9 -10 -18 -10q-7 0 -7 8q0 10 49.5 73t49.5 67t-49.5 67.5t-49.5 74.5q0 8 8 8q5 0 26.5 -21l61.5 -59.5t77 -68.5z" />
    <glyph glyph-name="fraction" unicode="&#x2044;" horiz-adv-x="167" 
d="M-118 -8h-49l452 650h49z" />
    <glyph glyph-name="trademark" unicode="&#x2122;" horiz-adv-x="990" 
d="M264 618v-279q0 -35 5 -41t40 -10v-16h-146v16q34 4 39.5 10t5.5 41v279h-46q-45 0 -62 -63h-16v79h304v-79h-16q-17 63 -62 63h-46zM651 269l-137 279h1h-2v-202q0 -30 9 -42t37 -16v-16h-116v16q28 4 37 16t9 42v226q0 19 -20 32.5t-41 13.5v16h103l141 -282l147 282
h88v-16q-51 -3 -51 -51v-228q0 -35 5 -41t40 -10v-16h-146v16q34 4 39.5 10t5.5 41v212h-2l-139 -282h-8z" />
    <glyph glyph-name="minus" unicode="&#x2212;" horiz-adv-x="600" 
d="M493 171h-386v44h386v-44z" />
    <glyph glyph-name="fi" unicode="&#xfb01;" horiz-adv-x="537" 
d="M309 352h-156v-246q0 -56 11.5 -73t48.5 -17v-16h-194v16q39 0 51.5 17t12.5 73v246h-58q0 19 10.5 25.5t47.5 14.5q4 41 9.5 73.5t20.5 74t36.5 69.5t60.5 47.5t90 19.5q44 0 82.5 -13.5t38.5 -40.5q0 -15 -9 -24t-24 -9q-13 0 -53 28.5t-76 28.5q-49 0 -77.5 -41.5
t-28.5 -129.5v-89h194q22 0 50 4q26 4 28 4q13 0 13 -15v-273q0 -56 12 -73t50 -17v-16h-199v16q42 0 54.5 16.5t12.5 73.5v190q0 39 -9.5 47.5t-49.5 8.5z" />
    <glyph glyph-name="fl" unicode="&#xfb02;" horiz-adv-x="537" 
d="M23 0v16q42 0 54.5 16.5t12.5 73.5v246h-58q0 19 10.5 25.5t47.5 14.5q23 284 239 284q15 0 44 -3t44 -3q23 0 33 2v-566q0 -54 11.5 -71t38.5 -19v-16h-192v16q45 0 58.5 16.5t13.5 73.5v246h-220v-246q0 -56 10.5 -73t42.5 -17v-16h-190zM380 386v197q-69 63 -115 63
t-75.5 -43.5t-29.5 -132.5v-84h220z" />
    </font>
</defs>
</svg>
